<?xml version="1.0" standalone="no"?>
<!DOCTYPE svg PUBLIC "-//W3C//DTD SVG 20010904//EN"
 "http://www.w3.org/TR/2001/REC-SVG-20010904/DTD/svg10.dtd">
<svg version="1.0" xmlns="http://www.w3.org/2000/svg"
 width="1920.000000pt" height="1920.000000pt" viewBox="0 0 1920.000000 1920.000000"
 preserveAspectRatio="xMidYMid meet">
<metadata>
Created by potrace 1.14, written by Peter Selinger 2001-2017
</metadata>
<g transform="translate(0.000000,1920.000000) scale(0.100000,-0.100000)"
fill="#000000" stroke="none">
<path d="M0 9600 l0 -5400 3645 0 3645 0 1 58 c1 31 2 122 4 202 1 80 5 165 8
190 7 46 20 249 22 330 0 25 4 52 7 60 4 8 12 78 18 155 15 188 18 221 35 355
14 115 20 187 30 355 3 50 8 110 10 135 19 212 34 417 40 560 3 52 9 147 15
210 6 63 13 216 14 340 2 124 9 257 14 295 40 268 44 320 38 530 -8 255 -14
545 -21 970 -3 176 -10 347 -15 380 -31 207 -25 242 59 325 46 46 68 59 121
75 78 23 227 130 395 284 60 56 133 118 162 139 29 20 94 68 145 106 101 75
142 96 185 96 29 -1 71 -25 65 -38 -2 -4 -10 -18 -17 -32 -7 -14 -22 -45 -34
-70 -11 -25 -47 -73 -80 -108 -34 -34 -61 -66 -61 -70 0 -7 -42 -49 -276 -280
-41 -41 -72 -77 -69 -81 2 -5 -2 -17 -10 -27 -8 -10 -15 -27 -15 -37 0 -10 -9
-28 -20 -39 -12 -13 -18 -29 -14 -40 3 -10 1 -18 -5 -18 -6 0 -11 -11 -11 -24
0 -16 -7 -27 -21 -31 -26 -9 -83 -123 -69 -140 5 -6 7 -34 3 -62 -6 -51 10
-120 43 -186 8 -16 14 -34 14 -40 0 -7 8 -25 17 -42 11 -21 17 -56 18 -113 1
-65 5 -85 19 -95 15 -11 24 -38 30 -94 3 -28 36 -73 53 -73 7 0 13 -4 13 -10
0 -5 -4 -10 -8 -10 -5 0 -15 -18 -22 -40 -12 -37 -12 -42 5 -54 16 -12 17 -17
6 -44 -13 -31 -11 -100 4 -135 4 -10 20 -20 35 -24 21 -4 26 -9 23 -24 -5 -19
-7 -19 -30 -4 -32 21 -39 14 -15 -13 11 -12 22 -19 25 -16 5 5 33 -37 29 -43
-1 -2 -2 -14 -2 -28 0 -18 5 -25 20 -25 15 0 20 -7 20 -28 0 -31 -24 -71 -36
-59 -4 4 -14 -7 -21 -24 -7 -17 -17 -28 -23 -24 -5 3 -10 -3 -10 -14 0 -29 -2
-34 -17 -49 -7 -7 -13 -24 -13 -36 0 -13 -7 -29 -15 -36 -9 -7 -13 -21 -10
-31 4 -12 -1 -19 -15 -24 -20 -6 -24 -17 -20 -67 1 -16 -3 -28 -9 -28 -6 0
-11 -5 -11 -11 0 -5 4 -7 10 -4 6 3 10 -1 10 -9 0 -10 -6 -13 -15 -10 -9 4
-15 0 -15 -10 0 -9 5 -16 11 -16 6 0 9 -6 6 -12 -2 -7 -10 -12 -17 -10 -10 2
-10 -1 1 -14 11 -13 11 -18 2 -21 -7 -3 -13 -11 -13 -19 0 -8 -6 -14 -12 -14
-9 0 -8 -3 2 -10 12 -8 12 -10 -2 -15 -18 -7 -16 -47 2 -53 7 -3 7 -8 0 -18
-13 -15 -4 -38 11 -29 5 4 9 2 9 -2 0 -5 -9 -14 -21 -21 -11 -7 -18 -19 -15
-27 3 -8 -3 -19 -12 -24 -9 -6 -13 -11 -8 -11 5 0 3 -7 -4 -15 -10 -12 -10
-15 1 -15 10 -1 9 -3 -3 -10 -20 -12 -12 -50 11 -50 11 0 12 -3 4 -8 -19 -12
-31 -54 -27 -91 3 -21 -1 -38 -8 -43 -8 -5 -9 -8 -2 -8 15 0 6 -46 -12 -61
-11 -9 -11 -15 -3 -25 10 -12 5 -37 -19 -104 -3 -8 -7 -26 -8 -40 -8 -122 -25
-233 -38 -255 -7 -11 -11 -47 -11 -80 1 -33 -1 -64 -4 -70 -8 -13 -10 -98 -3
-109 13 -21 11 -84 -3 -96 -7 -6 -12 -17 -9 -25 3 -7 1 -15 -3 -18 -5 -3 -6
-32 -3 -64 7 -84 5 -292 -5 -332 -6 -26 -5 -32 4 -27 9 6 10 -12 5 -76 -3 -45
-6 -87 -6 -93 3 -103 1 -146 -7 -174 -8 -25 -7 -38 1 -49 20 -23 20 -52 0 -53
-10 0 -12 -3 -4 -6 6 -2 12 -11 12 -19 0 -8 5 -14 11 -14 8 0 8 -4 0 -13 -8
-10 -7 -17 2 -26 9 -10 9 -14 -4 -21 -12 -7 -16 -22 -14 -55 1 -33 -3 -49 -16
-61 -24 -22 -24 -34 0 -34 11 0 22 8 24 18 3 11 5 7 6 -10 0 -15 -5 -33 -12
-40 -12 -11 -12 -16 -1 -26 11 -10 10 -18 -2 -47 -8 -20 -11 -41 -7 -48 4 -7
9 -37 10 -67 1 -30 2 -57 3 -60 7 -18 3 -38 -13 -55 -17 -19 -17 -20 0 -26 29
-10 32 -135 5 -185 -6 -12 -9 -24 -5 -27 3 -3 -2 -13 -11 -22 -9 -9 -16 -21
-16 -26 0 -13 18 -11 23 4 4 9 6 9 6 0 1 -7 12 -23 26 -37 29 -29 32 -48 10
-66 -21 -18 -19 -56 6 -90 18 -23 20 -34 12 -57 -6 -15 -8 -33 -6 -40 3 -9
122 -12 486 -13 l482 0 0 237 c1 253 14 354 66 513 31 96 57 135 163 239 53
52 98 104 102 115 38 128 182 440 244 531 16 23 40 63 55 90 61 110 156 239
245 330 32 33 80 93 106 132 70 104 182 228 328 362 64 59 70 68 77 115 40
276 151 682 225 824 1 2 16 6 32 8 26 4 31 1 41 -27 15 -42 14 -52 -3 -46 -14
6 -56 -23 -56 -37 0 -4 11 -17 25 -30 14 -13 25 -32 25 -44 0 -11 7 -23 16
-26 9 -4 14 -13 10 -21 -3 -9 1 -18 9 -21 8 -4 15 -14 15 -24 0 -15 18 -30 35
-30 4 0 120 159 140 191 50 79 155 218 248 327 51 59 51 77 -1 63 -18 -5 -32
-8 -32 -7 0 1 16 20 35 41 19 22 33 41 31 43 -5 4 -83 -15 -111 -28 -11 -4
-40 -17 -65 -28 -25 -11 -66 -27 -91 -36 -59 -19 -129 -56 -129 -67 0 -5 -8
-9 -18 -9 -10 0 -46 -29 -81 -65 -35 -36 -68 -65 -72 -65 -5 0 -9 11 -9 24 0
42 59 101 140 142 41 21 92 48 112 61 20 12 60 31 90 41 100 36 302 146 314
170 7 15 13 19 16 11 3 -8 18 0 44 22 73 65 196 149 273 188 66 34 284 195
396 292 106 92 209 173 340 266 44 31 82 60 85 63 3 4 14 10 25 14 13 5 15 10
8 13 -7 3 -13 9 -13 13 0 16 148 130 168 130 35 0 82 12 82 21 0 12 -37 11
-45 -1 -7 -12 -35 -14 -35 -2 1 14 139 82 182 88 l43 6 -33 -21 c-18 -12 -37
-21 -43 -21 -6 0 -22 -9 -36 -20 -34 -26 -25 -25 50 6 34 15 85 28 112 30 54
3 204 -31 220 -50 15 -18 172 -124 193 -130 11 -4 27 -15 37 -26 10 -11 24
-20 32 -20 7 0 13 -4 13 -9 0 -5 22 -32 49 -60 46 -48 48 -51 24 -51 -13 0
-32 4 -41 9 -20 10 -118 24 -110 15 9 -8 119 -33 153 -34 32 0 101 -29 126
-51 22 -21 59 -40 59 -31 0 9 -74 79 -122 115 -37 27 -67 67 -51 67 9 0 195
-155 322 -268 105 -93 184 -151 252 -185 30 -15 99 -57 153 -94 74 -50 103
-77 113 -101 15 -36 13 -36 -46 -14 -10 4 -9 -1 3 -21 10 -14 28 -28 40 -31
39 -10 82 -69 110 -153 31 -91 32 -93 70 -117 27 -17 28 -21 22 -70 -3 -29
-13 -68 -22 -86 -16 -31 -16 -40 0 -129 22 -120 32 -142 80 -164 l39 -18 -7
-92 c-6 -77 -3 -110 18 -202 36 -162 64 -326 76 -445 5 -58 15 -132 21 -165
16 -97 22 -485 10 -660 -11 -151 -41 -369 -75 -535 -23 -111 -34 -172 -35
-203 0 -15 -14 -78 -30 -140 -16 -61 -39 -159 -51 -217 -12 -58 -43 -166 -67
-240 -34 -101 -47 -158 -53 -228 -7 -99 -8 -100 -87 -178 -18 -17 -33 -41 -33
-53 l0 -21 389 0 389 0 6 35 c4 20 4 45 0 57 -3 11 -2 23 4 27 7 4 7 32 2 81
-5 41 -9 91 -9 110 0 29 2 32 9 15 5 -11 14 -39 20 -62 14 -56 35 -58 26 -3
-15 95 -29 140 -49 162 -15 16 -23 38 -24 67 -1 28 -7 47 -19 56 -13 9 -18 25
-17 56 3 83 15 194 29 279 16 93 21 355 9 511 -6 82 -4 105 15 169 34 117 31
117 159 6 97 -85 113 -96 131 -86 13 7 26 7 38 1 10 -6 24 -6 32 -1 24 15 -11
67 -95 141 -53 47 -145 149 -146 162 0 6 -3 33 -5 60 -3 34 -1 49 9 53 14 5
115 -25 174 -52 17 -7 36 -14 43 -14 7 0 46 -16 88 -36 66 -31 82 -35 126 -30
76 9 91 -7 90 -90 0 -36 -5 -69 -11 -72 -13 -9 -25 -85 -13 -77 6 3 7 0 4 -8
-3 -8 -2 -17 3 -20 5 -3 7 -38 5 -79 -10 -256 -13 -334 -22 -763 -1 -77 -5
-144 -8 -148 -2 -5 -5 -121 -6 -258 l-1 -249 1852 0 1853 0 0 5400 0 5400
-1783 0 -1783 0 3 -126 c2 -69 5 -130 8 -135 3 -4 8 -88 10 -186 2 -98 7 -236
10 -308 3 -71 8 -222 11 -335 2 -113 5 -209 6 -215 0 -14 1 -130 2 -348 1
-103 3 -187 6 -187 12 0 16 -614 6 -955 -3 -121 -5 -317 -5 -450 0 -22 -2
-143 -5 -270 -9 -388 -10 -580 -3 -592 4 -7 3 -14 -2 -17 -5 -3 -7 -41 -6 -83
1 -43 -1 -101 -6 -130 -4 -29 -4 -65 1 -81 4 -16 4 -49 0 -73 -11 -61 -31
-1008 -32 -1534 -1 -255 1 -310 16 -365 10 -36 20 -75 23 -87 3 -13 9 -23 14
-23 5 0 21 -22 36 -48 16 -27 34 -47 40 -45 8 3 13 -4 13 -17 0 -16 4 -20 19
-15 11 3 26 -1 35 -10 9 -9 21 -13 27 -9 6 3 14 2 18 -5 11 -18 100 -22 160
-7 64 16 201 27 201 16 0 -4 51 -10 113 -13 165 -10 276 -26 329 -48 26 -10
56 -19 67 -19 11 0 37 -7 58 -16 44 -19 71 -30 96 -38 10 -3 16 -10 12 -15 -3
-6 11 -13 31 -17 19 -3 38 -13 41 -21 3 -8 15 -18 27 -23 17 -6 21 -15 20 -41
-1 -19 -5 -43 -9 -53 -7 -16 -5 -18 8 -13 13 5 17 1 17 -18 0 -14 5 -25 10
-25 6 0 10 -11 10 -24 0 -13 7 -29 15 -36 19 -16 19 -30 0 -30 -9 0 -15 -10
-15 -26 0 -16 -5 -24 -12 -21 -7 2 -21 -9 -30 -24 -11 -19 -23 -26 -33 -23 -8
4 -17 -1 -21 -10 -3 -9 -17 -16 -31 -16 -13 0 -41 -11 -61 -25 -20 -14 -44
-25 -52 -25 -9 0 -20 -4 -25 -9 -6 -5 -28 -11 -50 -14 -22 -3 -83 -15 -135
-27 -122 -27 -158 -31 -166 -19 -4 6 -13 4 -23 -5 -10 -9 -44 -18 -77 -21 -32
-3 -87 -8 -121 -11 -35 -4 -63 -2 -63 2 0 5 -25 7 -55 6 -30 -2 -69 1 -87 7
-93 33 -285 19 -296 -21 -2 -10 -10 -18 -16 -18 -13 0 -56 -53 -56 -68 0 -6
-9 -12 -21 -15 -16 -4 -19 -11 -14 -27 4 -11 2 -26 -3 -33 -26 -32 -48 -190
-43 -304 1 -28 -3 -54 -9 -58 -5 -3 -10 1 -10 9 0 25 -17 18 -24 -9 -4 -14
-11 -23 -17 -20 -5 4 -16 2 -23 -4 -10 -9 -19 -3 -40 23 -14 19 -26 39 -26 45
0 15 -17 14 -22 -1 -3 -7 -11 -9 -24 -3 -10 4 -29 9 -42 11 -22 3 -21 1 8 -34
16 -20 30 -42 30 -49 0 -7 9 -17 20 -23 30 -16 36 -56 14 -96 -10 -19 -23 -34
-28 -34 -5 0 -31 17 -58 37 -35 27 -51 48 -59 75 -5 21 -7 42 -4 47 3 5 0 22
-5 37 -8 21 -14 24 -22 16 -7 -7 -15 -12 -18 -12 -10 0 -39 64 -49 109 -18 84
12 97 47 20 12 -28 22 -57 22 -66 0 -10 6 -13 16 -9 9 3 19 6 24 6 26 0 7 124
-32 207 -13 26 -36 20 -40 -10 -4 -28 -38 -36 -38 -9 0 11 -7 22 -15 25 -34
14 -113 215 -98 253 3 8 -2 22 -10 32 -9 9 -20 29 -26 45 -6 15 -17 27 -24 27
-19 0 -37 43 -38 93 0 29 -3 36 -8 23 -6 -16 -12 -12 -42 30 -19 27 -39 58
-43 69 -8 21 -27 138 -27 168 0 9 -4 17 -10 17 -12 0 -12 37 0 45 12 7 41 -22
41 -41 0 -8 4 -13 10 -9 5 3 18 0 29 -7 32 -20 36 -2 11 55 -59 134 -79 195
-79 239 0 18 -4 49 -8 68 -5 18 -6 63 -2 98 8 81 4 114 -28 199 -76 205 -85
234 -71 250 7 9 12 24 10 35 -2 10 1 18 7 18 19 0 61 -23 61 -33 0 -6 2 -8 5
-5 11 11 -27 79 -60 109 -19 18 -35 41 -35 52 0 16 3 17 15 7 10 -8 15 -9 15
-2 0 6 -8 16 -17 21 -10 6 -12 11 -5 11 6 0 12 6 12 14 0 8 6 16 12 18 7 3 -1
11 -17 19 -32 15 -44 51 -26 73 12 14 5 46 -10 46 -5 0 -9 5 -9 11 0 5 5 7 11
3 6 -3 10 1 9 12 -1 11 -2 45 -1 77 1 55 2 57 28 57 25 0 25 1 10 18 -10 11
-17 36 -17 61 0 23 -4 40 -9 37 -12 -8 -23 111 -11 132 5 9 12 34 15 55 3 20
10 37 15 37 16 0 11 40 -5 46 -9 4 -15 19 -15 36 0 28 2 30 27 24 26 -7 26 -7
10 18 -20 30 -22 66 -4 66 7 0 8 3 2 8 -15 11 -38 59 -32 69 3 4 2 29 -2 55
-4 26 -4 53 0 60 4 7 3 15 -3 19 -13 8 -11 419 2 454 6 15 6 27 0 30 -10 6 -5
1689 5 1705 4 6 5 217 3 485 0 46 19 792 27 1050 2 55 6 186 9 290 3 105 8
244 12 310 6 117 8 217 5 303 l-1 42 -3349 0 c-2365 0 -3352 -3 -3356 -11 -4
-6 -13 -8 -21 -5 -8 3 -11 0 -8 -8 5 -12 -100 -116 -116 -116 -4 0 -11 -11
-14 -25 -4 -14 -11 -25 -16 -25 -6 0 -10 -4 -10 -10 0 -9 -24 -47 -72 -118
-13 -18 -42 -54 -65 -80 -24 -26 -43 -57 -43 -69 0 -14 -14 -30 -45 -50 -25
-15 -47 -34 -50 -40 -6 -17 15 -12 39 9 11 10 22 16 25 13 6 -7 -40 -50 -53
-50 -6 0 -18 -20 -27 -44 -15 -41 -35 -63 -135 -152 -16 -14 -41 -33 -56 -43
-16 -10 -25 -23 -21 -32 3 -8 0 -14 -7 -14 -6 0 -8 5 -5 10 15 25 -13 6 -37
-24 -37 -46 -36 -57 2 -21 59 56 29 8 -50 -80 -96 -109 -128 -128 -190 -116
-40 8 -42 9 -12 10 17 1 32 5 32 11 0 5 -6 7 -14 4 -8 -3 -17 -1 -21 5 -3 7 2
11 14 11 12 0 21 7 21 15 0 9 -6 12 -15 9 -11 -5 -13 -2 -9 10 3 9 10 16 14
16 11 0 21 30 14 42 -4 6 -10 5 -15 -3 -8 -12 -11 -12 -18 1 -5 8 -7 18 -4 23
3 5 -3 6 -14 3 -14 -4 -20 -2 -20 9 0 9 10 15 26 16 23 0 24 1 6 9 l-20 8 20
7 c20 8 175 115 175 121 0 2 -29 -12 -65 -32 -36 -20 -65 -31 -65 -25 0 6 -5
11 -11 11 -5 0 -8 -4 -5 -9 3 -5 -5 -16 -19 -25 -14 -9 -25 -12 -25 -7 0 5 5
13 10 16 6 4 9 14 8 23 -2 11 9 22 30 31 39 18 41 31 6 31 -19 0 -25 4 -20 15
3 10 -1 15 -11 15 -13 0 -14 3 -5 12 17 17 15 28 -4 28 -21 0 35 56 62 62 15
3 18 10 16 36 -2 17 1 32 6 32 5 0 10 18 10 41 1 23 8 49 16 58 19 21 20 32 4
29 -6 -2 -14 5 -16 16 -2 11 0 16 6 12 6 -3 20 7 32 24 12 16 17 30 11 30 -6
0 -8 7 -5 15 4 10 0 15 -12 15 -9 0 -14 3 -10 8 4 4 13 7 19 7 8 0 11 19 9 58
-3 47 -1 57 12 57 9 0 19 7 22 15 4 8 13 15 21 15 12 0 13 3 4 13 -6 8 -10 31
-9 53 1 21 3 33 6 26 7 -21 22 -2 22 28 0 19 6 30 18 33 9 3 -412 5 -935 6
-590 1 -953 -3 -953 -8 0 -6 5 -13 11 -16 6 -4 8 -13 5 -20 -2 -7 -1 -42 4
-77 8 -55 7 -65 -8 -77 -12 -9 -14 -15 -4 -18 6 -3 12 -14 12 -26 0 -12 7 -31
15 -41 8 -11 15 -27 15 -37 0 -9 7 -22 15 -29 11 -9 12 -17 5 -30 -8 -15 -6
-20 10 -25 21 -7 27 -39 10 -50 -6 -3 -10 -13 -10 -22 0 -14 3 -13 21 3 21 19
22 19 15 -2 -5 -15 -2 -24 9 -28 11 -4 14 -12 10 -27 -4 -12 -2 -24 4 -28 6
-4 12 -18 13 -31 2 -14 11 -31 21 -38 9 -7 17 -26 17 -43 0 -16 5 -29 10 -29
6 0 10 -18 10 -40 0 -31 6 -47 25 -64 14 -13 25 -28 25 -33 0 -5 13 -21 28
-36 21 -20 29 -38 30 -65 2 -51 18 -85 53 -111 36 -27 50 -20 46 22 -2 28 1
32 21 31 12 0 21 2 19 5 -26 50 -30 63 -20 69 6 4 12 16 14 27 3 14 13 20 39
22 28 2 32 0 17 -8 -34 -20 -7 -30 63 -23 l67 6 13 -33 c8 -19 19 -52 25 -74
8 -29 16 -39 28 -37 11 2 17 -4 17 -16 0 -22 37 -33 91 -28 19 2 24 1 12 -1
-13 -2 -23 -9 -23 -14 0 -10 43 -12 54 -2 15 15 100 12 119 -4 13 -13 20 -14
25 -6 4 7 31 14 60 17 44 4 52 2 53 -12 0 -14 2 -14 8 2 7 17 8 17 23 2 25
-24 58 -21 59 7 1 20 1 20 9 -5 4 -14 5 -46 3 -71 -4 -36 -8 -43 -18 -34 -8 8
-10 18 -4 28 11 21 0 32 -18 18 -9 -8 -17 -8 -25 -1 -8 5 -22 6 -33 1 -15 -6
-16 -8 -4 -8 25 -1 33 -31 9 -31 -11 0 -20 -5 -20 -11 0 -16 -58 -68 -64 -57
-2 4 -3 3 -2 -4 1 -7 9 -13 17 -13 31 0 17 -20 -16 -23 -19 -2 -35 -7 -35 -13
0 -5 -9 -9 -20 -9 -24 0 -27 28 -4 44 13 10 39 96 29 96 -1 0 -14 -17 -29 -38
-31 -45 -38 -132 -10 -132 30 0 4 -17 -36 -24 -55 -9 -69 6 -56 56 11 41 5 54
-19 45 -9 -4 -15 -19 -15 -42 0 -23 -5 -35 -14 -35 -9 0 -12 -7 -9 -20 3 -11
0 -20 -6 -20 -10 0 -16 22 -12 44 1 5 -12 6 -29 3 -51 -11 -122 3 -128 25 -2
10 -9 18 -14 18 -6 0 -8 7 -4 15 4 10 -1 15 -14 15 -11 0 -20 -4 -20 -10 0 -5
6 -10 12 -10 7 0 2 -8 -12 -17 -17 -12 -25 -13 -28 -5 -4 14 -82 16 -82 2 0
-5 -9 -14 -21 -21 -25 -13 -41 -1 -46 33 -5 29 -11 34 -25 20 -7 -7 -20 -12
-29 -12 -9 0 -19 -7 -23 -15 -3 -8 -13 -15 -21 -15 -9 0 -13 -4 -10 -10 3 -5
2 -10 -3 -10 -6 0 -9 -8 -8 -17 1 -13 -8 -19 -27 -21 -15 -2 -25 -7 -22 -12 3
-5 -11 -14 -30 -21 -36 -13 -44 -24 -23 -31 8 -3 2 -11 -14 -19 -14 -8 -70
-44 -124 -80 -121 -81 -158 -99 -184 -92 -14 4 -20 1 -18 -8 2 -9 -12 -15 -42
-20 -61 -9 -130 0 -130 17 0 8 -7 14 -15 14 -22 0 -53 20 -99 62 -22 21 -48
40 -58 44 -10 3 -21 16 -24 30 -3 13 -12 24 -20 24 -8 0 -14 7 -14 15 0 9 -7
18 -15 21 -8 4 -15 15 -15 27 0 11 -11 35 -25 53 -14 18 -25 37 -25 42 0 5 -7
15 -15 22 -12 10 -13 15 -4 20 13 8 -16 54 -63 99 -26 26 -26 26 -7 50 10 13
19 31 19 41 0 10 7 21 16 24 8 3 13 10 10 14 -3 5 4 26 14 48 11 21 20 48 20
60 0 12 7 27 15 34 8 7 15 21 15 30 0 10 5 20 11 22 11 4 31 68 33 109 1 17 6
25 14 22 7 -3 12 4 12 19 0 13 9 31 20 41 11 9 20 26 20 37 0 11 6 23 14 26 8
3 13 16 11 30 -1 15 3 24 11 24 8 0 14 10 14 24 0 14 5 28 10 31 6 4 8 11 4
16 -3 5 0 17 7 25 11 14 21 85 20 147 0 15 3 27 7 27 11 0 6 74 -6 96 -7 12
-7 25 -1 36 6 10 7 23 4 29 -12 19 -7 102 7 110 7 5 -1124 9 -2514 9 l-2528 0
0 -5400z m7070 4570 c0 -5 -4 -10 -10 -10 -5 0 -10 5 -10 10 0 6 5 10 10 10 6
0 10 -4 10 -10z m-26 -26 c3 -8 2 -12 -4 -9 -6 3 -10 10 -10 16 0 14 7 11 14
-7z m386 -28 c0 -3 -4 -8 -10 -11 -5 -3 -10 -1 -10 4 0 6 5 11 10 11 6 0 10
-2 10 -4z m-1280 -40 c0 -8 6 -17 13 -20 10 -5 10 -7 0 -12 -7 -3 -13 -12 -13
-20 0 -8 -4 -14 -10 -14 -5 0 -9 10 -9 23 1 12 -2 30 -6 40 -5 12 -3 17 9 17
9 0 16 -6 16 -14z m1159 -93 c-30 -32 -58 -60 -64 -62 -5 -2 15 23 45 56 30
34 59 61 64 62 5 0 -15 -25 -45 -56z m-229 37 c0 -5 -9 -14 -20 -20 -23 -12
-26 -6 -7 15 14 17 27 19 27 5z m-846 -69 c3 -5 0 -11 -8 -14 -15 -6 -26 1
-26 15 0 11 27 10 34 -1z m446 -28 c0 -10 3 -29 7 -43 6 -23 6 -24 -10 -8 -18
18 -23 68 -7 68 6 0 10 -8 10 -17z m32 -15 c-9 -9 -12 -7 -12 12 0 19 3 21 12
12 9 -9 9 -15 0 -24z m88 15 c0 -24 -17 -49 -27 -40 -4 5 -1 12 6 17 8 4 11
15 8 24 -4 9 -2 16 3 16 6 0 10 -8 10 -17z m439 -63 c-19 -37 -30 -45 -52 -41
-5 1 -6 -3 -2 -9 3 -5 3 -15 -1 -22 -5 -8 -10 -6 -15 8 -7 20 34 74 57 74 6 0
14 7 18 15 3 8 8 15 11 15 2 0 -5 -18 -16 -40z m-99 10 c0 -5 -5 -10 -11 -10
-5 0 -7 5 -4 10 3 6 8 10 11 10 2 0 4 -4 4 -10z m21 -23 c-10 -9 -11 -8 -5 6
3 10 9 15 12 12 3 -3 0 -11 -7 -18z m-440 -10 c-10 -9 -11 -8 -5 6 3 10 9 15
12 12 3 -3 0 -11 -7 -18z m84 3 c-3 -5 -11 -10 -16 -10 -6 0 -7 5 -4 10 3 6
11 10 16 10 6 0 7 -4 4 -10z m-230 -130 c-3 -5 -11 -10 -16 -10 -6 0 -7 5 -4
10 3 6 11 10 16 10 6 0 7 -4 4 -10z m2505 -125 c0 -8 -4 -15 -10 -15 -5 0 -10
7 -10 15 0 8 5 15 10 15 6 0 10 -7 10 -15z m13 -39 c6 -8 10 -7 14 2 3 9 10 7
23 -8 13 -15 25 -20 39 -15 26 8 49 -4 30 -16 -23 -14 -1 -22 59 -24 l57 -2
-3 -39 c-3 -35 -2 -37 10 -21 15 20 48 14 48 -10 0 -8 8 -13 18 -11 11 2 18
-4 20 -19 2 -16 10 -23 24 -23 24 0 58 -27 58 -45 0 -16 35 -26 48 -13 6 6 15
7 21 4 16 -10 13 -36 -4 -36 -8 0 -15 -4 -15 -10 0 -5 5 -10 10 -10 6 0 10 -5
10 -11 0 -6 -7 -9 -15 -5 -10 4 -15 -1 -15 -14 0 -11 5 -20 10 -20 6 0 10 4
10 10 0 5 6 7 14 4 12 -5 12 -9 0 -32 -13 -24 -12 -27 4 -30 15 -2 18 -11 16
-53 -1 -44 -6 -54 -30 -70 -16 -10 -29 -22 -29 -26 0 -5 -15 -23 -32 -42 -18
-19 -33 -46 -35 -60 -2 -14 -8 -25 -15 -24 -6 2 -15 -7 -19 -20 -9 -29 -72
-107 -87 -107 -16 0 -38 -50 -29 -64 3 -6 7 -24 8 -41 1 -16 5 -56 9 -88 5
-39 4 -76 -5 -113 -10 -39 -10 -60 -3 -77 7 -15 8 -41 1 -77 -14 -78 -14 -89
-3 -89 10 1 23 -27 24 -53 1 -11 -4 -15 -14 -12 -10 4 -15 0 -15 -11 0 -9 5
-13 11 -9 7 4 10 -9 8 -41 -2 -28 2 -49 9 -54 7 -4 12 -23 13 -42 1 -179 9
-322 18 -333 6 -8 9 -21 5 -30 -9 -24 4 -66 21 -66 8 0 15 -6 15 -12 1 -8 6
-6 14 5 13 16 14 15 20 -15 4 -18 7 -44 6 -58 0 -20 2 -22 10 -10 8 13 10 12
10 -3 0 -10 -7 -20 -16 -24 -12 -4 -14 -14 -10 -37 4 -22 3 -27 -4 -16 -9 13
-10 13 -11 0 -1 -8 -3 -27 -5 -43 -2 -18 1 -25 8 -21 8 5 9 1 5 -10 -4 -10
-10 -35 -13 -57 -4 -22 -10 -42 -14 -44 -4 -3 -4 -21 0 -40 6 -27 5 -35 -6
-35 -8 0 -14 -7 -14 -16 0 -11 5 -14 16 -10 9 4 23 1 30 -5 10 -8 36 -10 79
-5 63 6 65 6 71 -19 3 -14 12 -25 20 -25 12 0 12 -4 2 -21 -11 -17 -10 -22 5
-30 9 -6 17 -21 17 -34 0 -14 3 -25 8 -25 21 1 34 22 40 65 5 37 12 50 29 56
19 7 24 4 29 -16 3 -14 12 -25 20 -25 8 0 14 -7 14 -15 0 -8 5 -15 10 -15 6 0
10 -7 10 -15 0 -9 16 -23 35 -32 28 -13 35 -23 35 -45 0 -15 5 -28 10 -28 18
0 10 -21 -17 -45 -16 -13 -32 -25 -36 -25 -5 0 -25 -16 -45 -35 -45 -43 -66
-49 -140 -42 -68 5 -102 -8 -153 -64 l-36 -39 -32 50 c-18 28 -42 55 -54 62
-12 6 -29 20 -37 31 -42 55 -73 87 -85 87 -7 0 -29 14 -50 30 -21 17 -42 30
-48 30 -16 0 -57 41 -57 57 0 7 -11 18 -25 23 -16 6 -23 14 -19 25 3 8 1 15
-5 15 -6 0 -11 6 -11 13 0 6 -10 28 -22 47 -12 19 -22 37 -23 40 0 3 -22 27
-47 54 -33 36 -48 61 -52 90 -4 22 -12 47 -19 55 -14 16 -35 110 -36 157 -1
17 -8 37 -16 44 -10 8 -13 21 -8 38 3 13 7 32 8 41 3 27 35 91 45 91 6 0 10 6
10 13 0 27 69 82 96 76 21 -4 34 2 34 16 0 8 5 15 11 15 5 0 7 4 4 10 -8 13
36 71 48 63 6 -3 2 -12 -8 -19 -10 -8 -16 -17 -12 -20 21 -22 77 85 77 148 0
40 1 41 16 22 15 -18 15 -18 10 4 -3 15 2 30 15 43 10 10 19 26 19 34 0 55
-101 184 -187 240 -44 28 -51 39 -33 50 6 4 7 12 3 20 -14 25 -98 85 -119 85
-11 0 -24 4 -30 10 -11 11 -191 39 -310 49 -8 0 -13 5 -10 10 7 10 -22 24 -33
16 -16 -9 -57 51 -70 100 -7 28 -17 69 -23 91 -5 23 -8 67 -6 97 1 30 0 53 -4
51 -3 -2 -5 43 -4 100 2 81 7 108 20 121 9 9 16 27 16 41 0 25 36 111 55 130
5 5 18 13 29 17 11 4 16 13 12 22 -3 9 1 18 9 22 13 4 13 8 3 20 -10 13 -8 14
14 12 15 -2 34 4 47 15 14 13 28 16 47 12 24 -6 26 -5 15 8 -12 14 -9 16 19
16 28 0 31 2 20 15 -10 12 -8 16 11 24 13 4 30 6 36 4 7 -3 16 2 19 11 5 12
10 14 19 6 9 -8 14 -6 19 5 7 20 35 19 59 -2 19 -17 19 -17 13 5 -6 19 -4 22
17 22 14 0 39 3 56 6 27 6 30 4 25 -11 -6 -14 -3 -16 14 -10 15 4 22 2 23 -7
0 -7 4 -3 9 9 6 15 15 20 28 16 11 -2 23 0 26 6 8 13 57 3 69 -13z m200 -43
c-7 -2 -19 -2 -25 0 -7 3 -2 5 12 5 14 0 19 -2 13 -5z m712 -1003 c3 -11 19
-32 34 -47 15 -16 30 -42 34 -60 6 -29 4 -32 -35 -48 -79 -31 -138 2 -138 79
0 41 4 48 37 71 45 30 60 31 68 5z m646 -306 c17 -15 19 -15 34 0 18 18 35 21
35 6 0 -5 8 -10 18 -10 15 -1 15 -2 2 -13 -18 -14 -15 -47 5 -47 7 0 21 8 31
17 16 16 18 16 35 -6 11 -13 20 -37 20 -55 1 -17 2 -40 3 -50 1 -10 10 -22 21
-27 18 -7 19 -8 1 -8 -14 -1 -17 -6 -13 -23 20 -76 20 -76 -2 -83 -12 -3 -21
-15 -21 -26 0 -11 -7 -22 -15 -25 -11 -5 -14 -16 -11 -45 3 -22 1 -39 -5 -39
-5 0 -9 5 -9 10 0 6 -4 10 -10 10 -5 0 -10 -8 -10 -18 0 -10 -6 -24 -12 -31
-11 -11 -9 -13 8 -9 12 3 28 2 35 -3 10 -6 7 -9 -11 -9 -25 0 -50 -16 -50 -32
0 -4 5 -8 10 -8 6 0 10 7 10 16 0 8 4 13 9 10 15 -10 0 -46 -20 -46 -12 0 -16
-5 -13 -15 4 -8 2 -15 -4 -15 -5 0 -15 -14 -22 -30 -10 -24 -15 -28 -26 -19
-11 9 -14 8 -14 -5 0 -9 -4 -16 -8 -16 -9 0 -42 -70 -42 -90 0 -10 -3 -10 -15
0 -19 16 -32 5 -37 -29 -4 -34 -28 -40 -28 -7 0 14 -3 26 -7 26 -13 0 -31 -48
-22 -57 4 -4 1 -17 -6 -27 -13 -17 -15 -17 -21 -3 -3 10 -10 17 -16 17 -5 0
-7 -4 -3 -9 3 -5 1 -12 -5 -16 -5 -3 -10 1 -10 9 0 10 -9 16 -24 16 -13 0 -26
5 -28 11 -6 17 -56 0 -54 -19 0 -9 -7 -18 -17 -20 -15 -3 -18 0 -12 17 5 15 2
21 -10 21 -9 0 -13 5 -10 10 11 18 -5 49 -34 66 -16 9 -36 30 -45 46 -10 16
-24 27 -34 26 -11 -2 -16 5 -17 22 0 18 -6 26 -23 28 -16 2 -22 8 -18 18 3 8
-1 14 -9 14 -17 0 -20 26 -5 35 6 3 10 12 10 18 -1 7 -6 5 -13 -5 -19 -24 -35
-9 -43 40 -6 41 -48 100 -67 94 -6 -2 -7 13 -4 35 6 35 5 36 -8 19 -15 -20
-15 -20 -16 0 -1 10 0 29 1 41 0 12 -8 31 -19 42 -21 21 -21 21 -1 21 18 0 19
5 13 45 -4 31 -2 45 6 45 6 0 11 -9 11 -19 0 -11 5 -23 10 -26 6 -3 10 3 10
15 0 12 5 18 10 15 6 -3 10 1 10 9 0 10 9 16 23 16 12 0 33 6 47 13 14 7 48
12 78 10 40 -2 52 0 52 11 0 8 8 15 18 15 9 0 53 4 97 8 62 7 74 10 53 16 -43
12 -33 22 21 22 32 0 55 6 68 17 10 10 41 20 67 22 26 3 51 7 54 10 11 11 46
6 63 -10z m-1838 -44 c12 -46 24 -60 50 -57 16 1 21 -3 19 -16 -2 -11 4 -27
14 -38 16 -18 15 -19 -10 -29 -15 -5 -47 -10 -71 -10 -38 0 -47 4 -66 33 -13
17 -27 34 -31 37 -13 10 12 84 34 103 30 25 50 18 61 -23z m1187 -80 c0 -5 -4
-10 -10 -10 -5 0 -10 5 -10 10 0 6 5 10 10 10 6 0 10 -4 10 -10z m-910 -39 c0
-5 -7 -14 -15 -21 -16 -14 -18 -10 -9 14 6 17 24 22 24 7z m1707 -353 c-3 -8
-6 -5 -6 6 -1 11 2 17 5 13 3 -3 4 -12 1 -19z m2183 -294 c0 -2 -12 -4 -27 -4
-21 0 -24 3 -14 9 13 8 41 5 41 -5z m-2615 -44 c-3 -5 -13 -10 -21 -10 -8 0
-12 5 -9 10 3 6 13 10 21 10 8 0 12 -4 9 -10z m105 -10 c0 -5 -4 -10 -9 -10
-6 0 -13 5 -16 10 -3 6 1 10 9 10 9 0 16 -4 16 -10z m-66 -16 c5 -14 4 -15 -9
-4 -17 14 -19 20 -6 20 5 0 12 -7 15 -16z m-408 -830 c-3 -9 -6 -21 -6 -27 0
-7 -4 -6 -10 3 -8 12 -10 12 -11 -5 0 -11 -3 -15 -5 -8 -7 15 13 53 27 53 6 0
8 -7 5 -16z m-65 -4 c5 0 9 -11 9 -25 0 -25 -19 -37 -21 -12 0 6 -4 2 -9 -10
-14 -34 -30 -28 -30 10 0 38 8 50 28 42 7 -3 18 -5 23 -5z m-174 -52 c2 -20
-2 -40 -8 -44 -8 -4 -9 0 -4 15 6 19 4 21 -18 16 -16 -4 -30 -1 -40 10 -25 24
-11 44 30 41 33 -2 36 -4 40 -38z m73 17 c0 -16 -6 -25 -15 -25 -8 0 -15 -7
-15 -15 0 -8 -5 -15 -11 -15 -7 0 -9 9 -5 23 3 12 6 30 6 40 0 10 8 17 20 17
15 0 20 -7 20 -25z m39 13 c0 -7 -4 -22 -8 -32 -10 -25 -22 -6 -14 22 6 23 23
31 22 10z m-246 -231 c35 -15 64 -44 53 -54 -3 -4 -21 -2 -39 4 -17 6 -47 14
-65 18 l-33 7 7 -39 c6 -36 3 -41 -53 -96 -32 -31 -63 -57 -70 -57 -17 0 -16
42 2 110 8 30 15 57 15 59 0 3 -11 -6 -24 -18 -24 -23 -46 -72 -65 -146 -6
-23 -21 -51 -33 -64 l-22 -24 27 7 c22 5 27 3 27 -11 -1 -10 -7 -29 -15 -43
-8 -14 -14 -37 -15 -52 0 -17 -10 -33 -27 -46 -25 -18 -26 -22 -15 -46 15 -34
15 -47 0 -44 -8 2 -15 -13 -18 -37 -4 -31 -9 -40 -24 -40 -11 0 -21 -6 -24
-13 -2 -6 1 -12 7 -12 6 0 7 -7 4 -17 -4 -10 -2 -14 4 -10 7 4 12 -6 15 -27 2
-21 0 -32 -7 -30 -6 2 -11 -14 -13 -37 -1 -23 -9 -51 -17 -63 -8 -11 -15 -33
-15 -47 0 -15 -3 -29 -7 -31 -5 -1 -21 -29 -38 -62 -16 -32 -35 -60 -42 -63
-6 -3 -15 -18 -18 -34 -6 -28 -36 -54 -48 -42 -8 7 -13 -9 -22 -59 -3 -21 -11
-38 -18 -38 -7 0 -20 -21 -31 -46 -10 -25 -24 -48 -31 -50 -7 -3 -11 -14 -8
-24 5 -18 -20 -65 -35 -65 -12 0 -76 -71 -94 -104 -11 -21 -25 -31 -40 -31
-13 0 -33 -3 -46 -6 -17 -5 -21 -3 -16 9 3 8 1 18 -5 22 -8 4 -6 15 4 35 8 16
15 37 15 47 0 10 7 31 15 47 8 16 18 42 20 58 8 45 44 109 81 146 19 19 34 38
34 43 0 5 11 11 25 15 14 3 25 12 25 19 0 7 7 16 16 19 8 3 12 10 9 16 -3 6
-3 19 0 31 5 14 13 18 28 15 12 -3 17 -3 10 0 -7 3 -9 12 -6 21 4 11 3 14 -6
9 -7 -4 -3 9 8 30 12 21 21 48 21 60 0 12 11 33 25 48 17 18 24 34 20 47 -4
10 -2 19 3 19 5 0 13 20 16 45 4 25 11 45 17 45 5 0 9 9 9 21 0 12 16 68 35
125 19 57 35 108 35 114 0 28 118 245 162 299 58 70 94 95 169 115 69 19 102
19 142 3z m3643 -1188 c19 -22 19 -22 -3 -10 -24 12 -39 31 -25 31 5 0 17 -10
28 -21z m898 -15 c3 -8 2 -12 -4 -9 -6 3 -10 10 -10 16 0 14 7 11 14 -7z
m-634 -24 c0 -5 -4 -10 -10 -10 -5 0 -10 5 -10 10 0 6 5 10 10 10 6 0 10 -4
10 -10z m657 -37 c15 -50 8 -55 -11 -8 -18 43 -19 45 -8 45 4 0 12 -17 19 -37z
m-582 -30 c18 -14 18 -15 2 -9 -10 3 -23 6 -28 6 -5 0 -9 5 -9 10 0 14 12 12
35 -7z m175 -13 c0 -5 -7 -7 -15 -4 -8 4 -15 8 -15 10 0 2 7 4 15 4 8 0 15 -4
15 -10z m48 -39 c26 -22 28 -31 7 -31 -8 0 -15 7 -15 15 0 7 -8 19 -17 24 -10
6 -13 10 -8 10 6 0 20 -8 33 -18z m-161 -17 c18 -14 38 -22 43 -19 6 4 9 2 8
-3 -7 -23 164 -172 224 -195 11 -4 16 -13 12 -24 -4 -12 -3 -14 3 -6 7 9 16 6
37 -13 15 -14 25 -29 22 -32 -3 -3 -14 2 -24 11 -10 10 -21 14 -25 11 -3 -4
-30 9 -59 27 -67 43 -261 209 -254 217 4 3 -4 16 -16 29 -29 31 -13 29 29 -3z
m97 -9 c11 -8 16 -18 12 -22 -3 -4 -16 3 -28 15 -25 25 -13 29 16 7z m144 -94
c15 -8 20 -16 14 -20 -7 -4 9 -24 38 -49 56 -48 70 -53 45 -16 -16 24 -16 26
2 22 9 -2 30 -26 45 -53 15 -28 35 -63 43 -78 15 -26 15 -28 -1 -25 -17 3 -94
75 -94 88 0 4 -11 13 -25 20 -13 7 -22 17 -20 21 3 4 -4 10 -15 14 -11 4 -18
10 -16 14 3 4 -7 15 -22 25 -15 11 -40 35 -57 54 l-29 35 33 -19 c18 -10 45
-25 59 -33z m-8165 -33 c26 -15 51 -28 55 -28 4 0 12 -8 17 -19 37 -68 121
-176 139 -176 5 0 13 -12 17 -27 15 -58 53 -115 102 -154 67 -53 81 -57 103
-33 10 11 26 18 35 16 10 -3 32 4 49 15 18 10 34 18 35 16 2 -2 6 -27 9 -57 6
-56 16 -82 16 -43 0 12 5 22 10 22 6 0 10 9 10 21 0 11 5 17 10 14 6 -3 10 2
10 11 0 26 8 13 30 -47 17 -48 19 -50 20 -22 0 26 3 30 19 26 22 -5 57 25 63
54 2 13 13 18 37 20 19 1 38 7 43 15 8 10 11 10 15 0 2 -6 10 -9 15 -5 7 4 9
-2 6 -15 -4 -15 -2 -22 8 -22 8 0 14 6 14 13 0 6 5 4 11 -6 10 -17 13 -16 30
12 26 43 45 48 69 20 10 -13 19 -21 20 -16 0 4 9 -2 19 -12 17 -17 18 -27 10
-87 -4 -38 -15 -107 -24 -154 -8 -47 -20 -130 -26 -185 -19 -180 -20 -186 -37
-192 -9 -4 -18 -1 -20 6 -3 8 -8 9 -16 2 -9 -8 -16 -1 -26 24 -17 43 -30 45
-30 6 0 -35 -9 -61 -21 -61 -4 0 -24 14 -43 30 -20 18 -37 26 -41 20 -3 -5 -2
-10 2 -10 5 0 10 -11 11 -26 1 -15 -2 -23 -8 -19 -6 4 -15 -8 -21 -25 -11 -29
-13 -30 -29 -15 -11 10 -26 14 -42 10 -17 -4 -31 0 -49 17 -32 32 -75 58 -93
58 -8 0 -16 6 -19 13 -3 10 -9 10 -26 0 -11 -7 -34 -13 -50 -13 -16 0 -42 -7
-57 -15 -16 -8 -37 -15 -46 -15 -9 0 -20 -5 -24 -11 -3 -6 -23 -18 -43 -26
-76 -31 -91 -38 -91 -45 0 -4 -21 -16 -46 -27 -25 -11 -43 -25 -40 -30 4 -5 2
-12 -3 -15 -5 -3 1 -33 12 -66 23 -65 31 -71 107 -77 84 -5 135 -12 210 -27
41 -8 93 -15 116 -15 28 -1 55 -11 89 -33 l47 -31 -5 -54 c-4 -42 -2 -55 9
-60 42 -16 -6 -141 -83 -219 -7 -7 -13 -17 -13 -22 0 -5 -16 -27 -35 -48 -19
-22 -35 -44 -35 -50 0 -5 -30 -21 -67 -34 -51 -17 -95 -24 -178 -26 -146 -5
-269 -34 -313 -76 -22 -19 -31 -36 -27 -47 3 -10 12 -53 20 -95 26 -135 17
-235 -31 -349 -25 -60 -38 -101 -68 -208 -48 -169 -167 -283 -316 -304 -56 -8
-148 9 -201 35 -76 39 -147 147 -189 290 -12 41 -29 95 -37 120 -9 25 -24 106
-33 180 -16 117 -16 140 -4 175 7 22 14 51 14 64 0 13 7 29 17 36 10 8 18 31
20 66 5 50 2 58 -36 114 -23 33 -41 68 -41 78 0 11 -17 25 -47 39 -27 13 -50
24 -52 25 -4 3 -6 17 -10 57 -1 4 -8 6 -16 2 -9 -3 -15 0 -15 9 0 8 -4 15 -10
15 -5 0 -10 6 -10 14 0 25 -84 100 -105 93 -7 -3 -27 8 -44 24 -18 16 -39 29
-48 29 -11 0 -14 6 -9 23 3 12 6 35 6 50 0 27 45 80 93 112 8 6 18 20 22 33 5
18 2 22 -16 22 -20 0 -21 4 -16 40 3 22 1 40 -3 40 -4 0 -6 8 -3 19 7 27 -60
104 -102 118 -91 28 -145 122 -152 263 -6 107 19 182 83 249 53 57 178 111
255 111 26 0 31 3 19 11 -11 7 -4 8 25 3 22 -4 47 -7 55 -7 25 1 161 -47 224
-79 l59 -30 29 32 c15 18 28 37 28 42 0 4 34 42 76 84 43 41 87 94 99 117 30
58 48 89 63 105 6 7 12 21 12 29 0 9 3 13 6 10 4 -4 20 10 35 31 37 47 43 54
65 72 143 113 256 134 367 68z m8265 2 c7 -11 9 -20 4 -20 -4 0 -13 9 -20 20
-7 11 -9 20 -4 20 4 0 13 -9 20 -20z m790 -156 c-10 -10 -28 6 -28 24 0 15 1
15 17 -1 9 -9 14 -19 11 -23z m-668 -85 c0 -6 -4 -7 -10 -4 -5 3 -10 11 -10
16 0 6 5 7 10 4 6 -3 10 -11 10 -16z m80 -104 c34 -37 17 -41 -22 -6 -22 20
-28 31 -17 31 8 0 26 -11 39 -25z m-7550 -19 c0 -3 -4 -8 -10 -11 -5 -3 -10
-1 -10 4 0 6 5 11 10 11 6 0 10 -2 10 -4z m1510 -31 c-9 -11 -9 -15 -1 -15 7
0 9 -5 5 -11 -10 -16 -28 6 -21 25 4 9 12 16 18 16 8 0 8 -4 -1 -15z m-1273
-115 c-3 -11 -1 -18 4 -14 5 3 9 1 9 -5 0 -5 3 -17 7 -27 5 -13 3 -16 -10 -11
-11 4 -17 1 -17 -9 0 -8 4 -13 9 -10 5 3 14 -8 21 -25 10 -24 10 -41 1 -85 -7
-31 -10 -58 -7 -61 3 -4 6 1 6 10 0 9 5 19 10 22 7 4 9 -4 6 -22 -2 -15 -7
-47 -11 -70 -5 -30 -12 -43 -23 -44 -11 0 -12 -2 -4 -6 6 -2 12 -11 12 -19 0
-9 -5 -12 -11 -8 -8 4 -9 -1 -4 -16 5 -15 4 -20 -4 -16 -7 5 -11 -1 -11 -14 0
-12 -4 -18 -10 -15 -5 3 -10 -1 -10 -9 0 -20 -53 -57 -68 -47 -8 5 -13 33 -13
77 0 102 8 160 40 274 5 19 16 59 24 88 8 29 23 59 33 67 25 19 27 19 21 -5z
m7953 0 c0 -5 -2 -10 -4 -10 -3 0 -8 5 -11 10 -3 6 -1 10 4 10 6 0 11 -4 11
-10z m-6620 -30 c0 -5 -4 -10 -10 -10 -5 0 -10 5 -10 10 0 6 5 10 10 10 6 0
10 -4 10 -10z m40 -62 c0 -4 -4 -8 -10 -8 -5 0 -10 4 -10 9 0 5 -3 18 -6 28
-5 16 -4 16 10 -1 9 -11 16 -23 16 -28z m6333 -73 c4 -8 2 -17 -2 -20 -5 -2
-11 4 -14 15 -6 23 8 27 16 5z m75 -255 c40 -131 55 -227 31 -203 -5 5 -16 46
-23 90 -7 44 -16 85 -20 91 -7 12 -36 118 -36 130 1 16 29 -47 48 -108z m-325
20 c3 -11 1 -20 -4 -20 -5 0 -9 9 -9 20 0 11 2 20 4 20 2 0 6 -9 9 -20z m7
-42 c1 -7 15 -22 33 -33 21 -13 33 -30 35 -47 l3 -28 -38 16 c-46 19 -53 29
-53 72 0 29 19 48 20 20z m405 -310 c6 -23 4 -26 -14 -21 -16 4 -21 13 -21 41
0 32 2 34 14 22 8 -8 18 -27 21 -42z m245 -23 c17 -21 24 -143 9 -161 -6 -8
-22 -14 -34 -14 -18 0 -26 8 -35 34 -11 34 -9 47 25 144 6 16 20 15 35 -3z
m-193 -147 c-3 -8 -6 -5 -6 6 -1 11 2 17 5 13 3 -3 4 -12 1 -19z m-20 -230
c-3 -8 -6 -5 -6 6 -1 11 2 17 5 13 3 -3 4 -12 1 -19z m725 -88 c46 -47 50 -53
43 -83 -5 -18 -9 -49 -10 -71 -2 -24 -9 -42 -19 -48 -12 -7 -16 -5 -16 7 0 9
-4 13 -10 10 -18 -11 -48 15 -60 51 -14 41 -18 153 -6 172 12 21 26 14 78 -38z
m-325 -396 c10 -15 27 -36 39 -48 37 -37 60 -108 48 -141 -5 -13 -10 -12 -34
5 -15 11 -33 20 -39 20 -22 0 -61 75 -62 121 -3 72 16 89 48 43z m-352 -2302
c-9 -9 -25 19 -24 43 0 16 2 15 15 -8 9 -16 13 -32 9 -35z"/>
<path d="M8506 13365 c-3 -8 -1 -15 4 -15 6 0 10 7 10 15 0 8 -2 15 -4 15 -2
0 -6 -7 -10 -15z"/>
<path d="M9305 12160 c3 -5 8 -10 11 -10 2 0 4 5 4 10 0 6 -5 10 -11 10 -5 0
-7 -4 -4 -10z"/>
<path d="M9150 12010 c0 -5 5 -10 10 -10 6 0 10 5 10 10 0 6 -4 10 -10 10 -5
0 -10 -4 -10 -10z"/>
<path d="M9120 11980 c0 -5 5 -10 10 -10 6 0 10 5 10 10 0 6 -4 10 -10 10 -5
0 -10 -4 -10 -10z"/>
<path d="M9406 11493 c-11 -11 -6 -23 9 -23 8 0 15 4 15 9 0 13 -16 22 -24 14z"/>
<path d="M10090 12049 c0 -5 5 -7 10 -4 6 3 10 8 10 11 0 2 -4 4 -10 4 -5 0
-10 -5 -10 -11z"/>
<path d="M10095 12020 c3 -5 8 -10 11 -10 2 0 4 5 4 10 0 6 -5 10 -11 10 -5 0
-7 -4 -4 -10z"/>
<path d="M10642 11580 c0 -14 2 -19 5 -12 2 6 2 18 0 25 -3 6 -5 1 -5 -13z"/>
<path d="M10210 11559 c0 -5 5 -7 10 -4 6 3 10 8 10 11 0 2 -4 4 -10 4 -5 0
-10 -5 -10 -11z"/>
<path d="M10406 11416 c3 -9 11 -16 16 -16 13 0 5 23 -10 28 -7 2 -10 -2 -6
-12z"/>
<path d="M8981 9254 c0 -11 3 -14 6 -6 3 7 2 16 -1 19 -3 4 -6 -2 -5 -13z"/>
<path d="M6600 8285 c0 -5 5 -17 10 -25 5 -8 10 -10 10 -5 0 6 -5 17 -10 25
-5 8 -10 11 -10 5z"/>
<path d="M6589 8213 c-5 -117 15 -179 24 -79 6 59 -3 116 -18 116 -3 0 -6 -17
-6 -37z"/>
<path d="M6456 8165 c-9 -26 -7 -32 5 -12 6 10 9 21 6 23 -2 3 -7 -2 -11 -11z"/>
<path d="M6601 7954 c0 -11 3 -14 6 -6 3 7 2 16 -1 19 -3 4 -6 -2 -5 -13z"/>
<path d="M4960 7594 c-13 -13 -19 -24 -13 -24 6 0 9 -9 6 -20 -3 -11 -9 -20
-14 -20 -5 0 -9 -11 -9 -25 0 -15 6 -25 14 -25 8 0 13 -8 12 -17 -1 -14 7 -16
49 -14 27 2 53 5 57 7 8 5 7 64 -2 64 -3 0 -4 15 -2 33 3 27 -1 35 -26 50 -38
22 -42 21 -72 -9z"/>
<path d="M6907 8103 c-4 -3 -7 -11 -7 -17 0 -6 5 -5 12 2 6 6 9 14 7 17 -3 3
-9 2 -12 -2z"/>
<path d="M6900 7950 c0 -5 5 -10 11 -10 5 0 7 5 4 10 -3 6 -8 10 -11 10 -2 0
-4 -4 -4 -10z"/>
<path d="M7885 14980 c-27 -30 -14 -33 20 -5 21 17 25 24 14 25 -9 0 -24 -9
-34 -20z"/>
<path d="M7781 14800 c-1 -14 -4 -36 -8 -49 -4 -18 -3 -22 6 -17 7 5 10 10 7
13 -3 3 -2 13 3 22 5 9 5 25 0 36 -7 18 -8 18 -8 -5z"/>
<path d="M7776 14697 c-11 -8 -16 -22 -14 -38 4 -22 5 -23 12 -4 4 11 12 28
17 38 11 20 9 21 -15 4z"/>
<path d="M7720 14638 c-11 -12 -20 -25 -20 -29 0 -4 -3 -15 -7 -25 -6 -16 -5
-16 14 1 20 19 48 75 38 75 -2 0 -13 -10 -25 -22z"/>
<path d="M7659 14562 c-29 -34 -31 -47 -3 -20 15 15 26 30 23 32 -3 3 -12 -3
-20 -12z"/>
<path d="M7595 14490 c-16 -17 -16 -20 -3 -15 9 4 19 13 22 21 7 19 2 18 -19
-6z"/>
<path d="M7276 14244 c-5 -14 -4 -15 9 -4 17 14 19 20 6 20 -5 0 -12 -7 -15
-16z"/>
<path d="M6065 13990 c-3 -5 -1 -10 4 -10 6 0 11 5 11 10 0 6 -2 10 -4 10 -3
0 -8 -4 -11 -10z"/>
<path d="M5795 13910 c3 -5 8 -10 11 -10 2 0 4 5 4 10 0 6 -5 10 -11 10 -5 0
-7 -4 -4 -10z"/>
<path d="M6491 13821 c-7 -5 -11 -15 -9 -24 3 -14 5 -14 22 -1 22 16 10 39
-13 25z"/>
<path d="M6360 13785 c0 -8 -4 -15 -10 -15 -5 0 -10 5 -10 10 0 12 -52 2 -61
-12 -3 -5 -13 -6 -22 -2 -11 4 -17 1 -17 -9 0 -9 9 -15 23 -14 12 0 30 -3 40
-7 12 -6 17 -4 17 9 0 9 5 13 10 10 6 -4 8 -11 5 -16 -11 -16 22 -10 46 10 20
16 21 21 10 35 -17 20 -31 21 -31 1z"/>
<path d="M5790 13763 c0 -6 -3 -18 -6 -27 -4 -11 -1 -16 11 -16 11 0 15 5 12
14 -8 20 4 28 20 15 10 -9 13 -7 13 7 0 14 -7 19 -25 19 -14 0 -25 -5 -25 -12z"/>
<path d="M6210 13770 c0 -5 5 -10 11 -10 5 0 7 5 4 10 -3 6 -8 10 -11 10 -2 0
-4 -4 -4 -10z"/>
<path d="M6095 13760 c3 -5 10 -10 16 -10 5 0 9 5 9 10 0 6 -7 10 -16 10 -8 0
-12 -4 -9 -10z"/>
<path d="M5962 13741 c-10 -6 -8 -10 10 -14 41 -11 51 -9 34 8 -17 17 -25 18
-44 6z"/>
<path d="M6146 13743 c-4 -5 -20 -8 -34 -8 -22 0 -27 -5 -27 -25 0 -31 29 -39
106 -26 43 7 59 14 62 28 4 15 1 18 -14 13 -14 -5 -17 -3 -13 9 3 9 1 16 -5
16 -6 0 -11 -7 -11 -15 0 -8 -6 -15 -14 -15 -8 0 -16 7 -20 15 -6 16 -18 19
-30 8z m2 -34 c-2 -6 -8 -10 -13 -10 -5 0 -11 4 -13 10 -2 6 4 11 13 11 9 0
15 -5 13 -11z m47 1 c18 -8 17 -9 -7 -9 -16 -1 -28 4 -28 9 0 12 8 12 35 0z"/>
<path d="M5928 13713 c7 -3 16 -2 19 1 4 3 -2 6 -13 5 -11 0 -14 -3 -6 -6z"/>
<path d="M6330 13704 c0 -17 22 -14 28 4 2 7 -3 12 -12 12 -9 0 -16 -7 -16
-16z"/>
<path d="M12548 9163 c7 -3 16 -2 19 1 4 3 -2 6 -13 5 -11 0 -14 -3 -6 -6z"/>
<path d="M13030 9036 c0 -2 9 -6 20 -9 11 -3 18 -1 14 4 -5 9 -34 13 -34 5z"/>
<path d="M13515 8800 c10 -11 23 -20 28 -20 6 0 25 -11 43 -25 19 -14 31 -20
29 -13 -6 14 -95 78 -109 78 -5 0 -1 -9 9 -20z"/>
<path d="M13110 8663 c14 -10 34 -25 44 -35 11 -10 22 -15 25 -12 8 8 -61 63
-79 64 -9 0 -5 -7 10 -17z"/>
<path d="M13690 8673 c0 -6 8 -17 18 -24 16 -13 16 -13 2 6 -8 11 -16 22 -17
24 -2 2 -3 0 -3 -6z"/>
<path d="M13255 8545 c35 -29 109 -70 100 -56 -3 6 -28 22 -55 37 -28 15 -50
31 -50 36 0 4 -6 8 -12 8 -7 -1 1 -12 17 -25z"/>
<path d="M13432 8426 c35 -29 65 -52 67 -50 8 7 -43 60 -77 81 -60 37 -56 27
10 -31z"/>
<path d="M8130 8205 c0 -3 9 -14 20 -25 11 -11 20 -15 20 -9 0 6 -6 17 -14 25
-15 14 -26 18 -26 9z"/>
<path d="M13610 8194 c0 -7 54 -76 92 -119 10 -11 40 -51 68 -90 51 -70 63
-79 35 -24 -17 32 -28 46 -90 116 -22 25 -46 55 -54 66 -19 27 -51 59 -51 51z"/>
<path d="M8125 8130 c-3 -5 -1 -10 4 -10 6 0 11 5 11 10 0 6 -2 10 -4 10 -3 0
-8 -4 -11 -10z"/>
<path d="M14944 8065 c3 -19 9 -51 12 -70 4 -25 11 -35 24 -35 10 0 25 -11 34
-25 21 -32 40 -33 30 -2 -4 12 -7 29 -7 37 0 8 -9 27 -21 41 -12 15 -29 41
-38 58 -23 43 -42 41 -34 -4z"/>
<path d="M11055 8050 c-3 -5 -1 -10 4 -10 6 0 11 5 11 10 0 6 -2 10 -4 10 -3
0 -8 -4 -11 -10z"/>
<path d="M11083 8045 c0 -8 4 -12 9 -9 4 3 8 9 8 15 0 5 -4 9 -8 9 -5 0 -9 -7
-9 -15z"/>
<path d="M14964 7936 c-8 -22 3 -33 18 -18 9 9 9 15 0 24 -9 9 -13 7 -18 -6z"/>
<path d="M13870 7814 c0 -6 11 -36 24 -66 14 -31 28 -72 31 -92 4 -20 11 -38
15 -41 7 -5 -5 61 -17 95 -7 16 -9 27 -12 50 -2 19 -40 69 -41 54z"/>
<path d="M15175 7660 c-3 -5 -1 -10 4 -10 6 0 11 5 11 10 0 6 -2 10 -4 10 -3
0 -8 -4 -11 -10z"/>
<path d="M13090 7482 c0 -5 7 -15 15 -22 8 -7 15 -9 15 -6 0 4 -7 14 -15 22
-8 9 -15 11 -15 6z"/>
<path d="M7960 7400 c0 -5 5 -10 10 -10 6 0 10 5 10 10 0 6 -4 10 -10 10 -5 0
-10 -4 -10 -10z"/>
<path d="M10562 7360 c0 -14 2 -19 5 -12 2 6 2 18 0 25 -3 6 -5 1 -5 -13z"/>
<path d="M12970 7369 c0 -5 5 -7 10 -4 6 3 10 8 10 11 0 2 -4 4 -10 4 -5 0
-10 -5 -10 -11z"/>
<path d="M13182 7348 c3 -7 13 -15 24 -17 10 -1 27 -10 37 -19 9 -8 17 -11 17
-6 0 10 -61 54 -74 54 -4 0 -6 -6 -4 -12z"/>
<path d="M10532 7318 c-15 -15 -16 -28 -2 -28 6 0 10 6 10 14 0 8 6 17 13 19
6 3 7 6 2 6 -6 1 -16 -4 -23 -11z"/>
<path d="M13024 7316 c11 -9 27 -16 35 -15 14 0 14 1 1 6 -8 3 -24 10 -35 15
-20 9 -20 9 -1 -6z"/>
<path d="M13111 7314 c0 -11 3 -14 6 -6 3 7 2 16 -1 19 -3 4 -6 -2 -5 -13z"/>
<path d="M13330 7315 c7 -9 16 -12 19 -8 4 4 10 11 15 16 5 4 -3 7 -19 7 -24
0 -26 -2 -15 -15z"/>
<path d="M13151 7268 c-31 -62 -48 -81 -66 -75 -24 10 -18 27 10 27 18 0 25 5
25 19 0 27 -21 38 -32 17 -6 -11 -16 -15 -29 -11 -18 6 -19 5 -7 -14 11 -18
11 -23 -2 -31 -15 -10 -43 13 -52 42 -2 6 -9 9 -15 7 -7 -3 -7 -18 1 -51 l12
-46 -23 9 c-35 13 -35 12 -17 -23 9 -18 17 -45 16 -60 0 -16 4 -28 9 -28 5 0
9 6 9 14 0 8 5 18 10 21 6 4 10 -8 10 -28 0 -34 -2 -35 -52 -48 -41 -9 -48
-14 -33 -20 27 -10 57 -47 49 -60 -3 -6 -19 -7 -35 -4 -22 5 -29 3 -27 -7 2
-8 -9 -14 -32 -16 -19 -2 -39 -10 -43 -18 -4 -8 -19 -14 -32 -14 -14 0 -25 -7
-28 -17 -4 -17 -5 -17 -6 0 -1 11 -6 15 -13 11 -6 -4 -17 1 -25 11 -12 18 -13
17 -13 -6 0 -22 -3 -25 -34 -21 -18 2 -37 -1 -40 -7 -4 -6 -3 -11 3 -11 10 0
47 -68 40 -74 -2 -3 -22 4 -43 15 -22 10 -41 17 -44 14 -10 -10 9 -35 28 -35
11 0 20 -5 20 -11 0 -5 -4 -8 -9 -4 -5 3 -12 1 -15 -4 -10 -16 14 -24 30 -10
20 16 63 -6 61 -32 -1 -14 -8 -18 -29 -17 -15 1 -28 6 -28 10 0 4 -7 8 -16 8
-11 0 -14 -5 -10 -16 3 -9 6 -18 6 -20 0 -3 5 -2 10 1 15 9 50 -4 50 -20 0 -7
6 -16 13 -18 9 -4 8 -8 -3 -16 -12 -8 -16 -6 -20 12 -4 15 -8 18 -14 9 -11
-18 -57 -16 -50 3 4 9 0 15 -10 15 -11 0 -16 -9 -16 -28 0 -35 9 -45 27 -31
10 9 13 8 13 -5 0 -9 -5 -16 -11 -16 -17 0 1 -21 28 -31 41 -15 22 -34 -31
-31 l-48 4 17 -26 c9 -14 17 -41 17 -61 0 -23 5 -35 14 -35 8 0 14 5 14 10 0
6 4 10 9 10 14 0 21 -54 8 -65 -19 -17 -38 -55 -27 -55 5 0 10 -7 10 -15 0
-17 -31 -20 -46 -5 -14 14 -74 1 -74 -16 0 -17 16 -18 26 -2 11 17 23 -19 22
-67 l-1 -40 -7 35 c-6 28 -16 26 -11 -3 1 -4 -6 -10 -14 -13 -18 -7 -20 -31
-2 -37 8 -3 5 -12 -11 -30 -16 -17 -22 -32 -18 -45 4 -11 2 -23 -3 -26 -6 -4
-6 -18 0 -38 10 -37 5 -46 -16 -28 -20 16 -32 5 -16 -14 8 -9 28 -14 50 -13
27 1 45 -6 69 -28 54 -48 32 -56 -32 -11 -26 17 -29 18 -23 3 5 -14 0 -19 -24
-24 -26 -5 -30 -10 -26 -29 3 -19 0 -24 -15 -24 -22 0 -19 -24 3 -26 8 -1 23
-3 34 -4 15 -1 16 -3 5 -7 -8 -3 -19 -11 -23 -17 -6 -8 -10 -8 -13 0 -3 7 -14
9 -26 6 -18 -4 -20 -2 -14 26 4 18 3 33 -3 37 -6 3 -11 -1 -11 -10 0 -8 -7
-18 -15 -21 -23 -9 -18 -29 11 -43 14 -6 42 -29 62 -51 19 -22 41 -40 49 -40
7 0 13 -5 13 -11 0 -6 26 -36 57 -67 32 -31 80 -84 107 -117 60 -73 163 -185
171 -185 2 0 1 9 -2 20 -4 15 0 20 16 20 20 0 26 12 22 52 -1 9 3 19 9 23 13
8 13 55 0 55 -18 0 -10 35 11 48 15 10 24 10 34 2 17 -14 28 2 18 27 -6 16 -5
16 10 4 9 -7 17 -20 17 -27 0 -8 5 -14 10 -14 14 0 13 33 -2 48 -7 7 -9 12 -5
12 4 0 3 9 -3 21 -11 20 -11 20 13 4 24 -15 26 -15 32 4 4 12 12 18 21 14 13
-5 14 9 5 67 -1 3 -5 -2 -11 -10 -5 -8 -12 -11 -17 -7 -4 4 -2 16 4 26 9 15 8
23 -8 39 -20 22 -8 42 15 23 15 -13 36 4 36 30 0 10 5 21 10 24 6 4 8 10 5 15
-8 12 17 50 32 50 16 0 17 12 1 29 -11 10 -10 11 5 6 11 -5 17 -2 17 8 0 8
-10 18 -22 22 -20 6 -20 8 -5 12 9 2 17 9 17 14 0 5 9 9 19 9 11 0 23 5 26 10
5 8 11 8 20 0 9 -8 11 -4 7 16 -4 23 -2 25 17 19 22 -7 22 -6 6 25 -12 24 -14
35 -5 45 7 8 12 30 13 50 1 24 6 35 16 35 11 0 10 4 -5 19 -10 10 -25 16 -33
13 -9 -3 -12 0 -7 9 3 8 9 22 12 32 4 11 13 16 21 12 11 -4 13 -1 9 12 -4 9
-2 20 4 23 8 5 6 9 -4 13 -9 4 -16 2 -16 -4 0 -6 -4 -7 -10 -4 -15 9 -12 25 5
25 17 0 20 21 5 36 -5 5 -6 24 0 47 7 34 6 39 -13 47 -21 8 -21 8 7 19 22 9
26 14 17 25 -20 23 6 29 28 7 11 -11 22 -17 25 -13 6 10 -16 37 -37 45 -16 6
-16 8 3 27 22 22 23 41 2 48 -7 2 -10 -2 -6 -12 9 -23 -13 -20 -25 3 -13 23 8
34 46 25 19 -5 24 -3 21 7 -2 7 -17 16 -32 20 -52 14 -79 59 -36 59 15 0 20
-7 21 -27 l1 -28 10 28 c6 16 17 27 28 27 32 0 32 19 2 48 -17 15 -33 42 -37
60 -4 22 -12 32 -25 32 -21 0 -36 56 -20 75 6 8 7 15 2 17 -5 1 -13 18 -17 37
-6 29 -5 33 9 28 11 -5 16 -1 16 13 0 11 3 20 8 20 4 0 15 7 25 15 15 10 17
18 8 32 -10 17 -10 16 -11 -4 0 -18 -6 -23 -25 -23 -14 0 -25 3 -25 8 0 4 -14
13 -31 21 -16 7 -28 16 -24 19 3 3 11 0 17 -6 7 -7 21 -12 32 -12 19 0 19 0 1
14 -18 13 -18 14 5 26 18 9 25 10 28 1 5 -14 42 -14 42 0 0 7 -7 17 -16 23
-15 11 -15 15 0 50 17 41 14 56 -12 56 -14 0 -15 -2 -2 -10 8 -5 12 -12 8 -15
-3 -3 -16 9 -29 27 -29 42 -41 50 -51 35 -5 -8 -8 -7 -8 5 0 34 -19 27 -39
-14z m79 -53 c17 -32 10 -39 -22 -22 -20 10 -23 16 -14 30 15 23 20 22 36 -8z
m-69 -42 c28 -17 40 -43 19 -43 -5 0 -10 7 -10 15 0 14 -14 19 -47 18 -14 -1
-17 10 -6 20 9 10 11 9 44 -10z m-85 -15 c4 -7 3 -8 -4 -4 -7 4 -12 1 -12 -9
0 -9 5 -13 10 -10 6 3 10 -3 10 -15 0 -14 -4 -19 -12 -13 -7 4 -21 6 -30 5
-11 -2 -18 3 -18 14 0 16 26 43 42 44 4 0 10 -5 14 -12z m-36 -168 c0 -18 -3
-19 -22 -9 -22 12 -22 12 -3 20 11 4 21 8 23 8 1 1 2 -8 2 -19z m-26 -86 c9
-22 -3 -32 -14 -14 -12 19 -12 30 -1 30 5 0 12 -7 15 -16z m-47 -16 c-3 -8 -6
-5 -6 6 -1 11 2 17 5 13 3 -3 4 -12 1 -19z m-44 -28 c16 -19 16 -20 -11 -20
-15 0 -34 5 -42 10 -13 9 -13 11 0 20 22 14 34 12 53 -10z m-184 -36 c11 -11
-16 -21 -36 -13 -34 12 -29 33 4 24 16 -4 30 -9 32 -11z m532 -37 c-13 -13
-26 -3 -16 12 3 6 11 8 17 5 6 -4 6 -10 -1 -17z m-501 -11 c0 -3 -4 -8 -10
-11 -5 -3 -10 -1 -10 4 0 6 5 11 10 11 6 0 10 -2 10 -4z m488 -64 c6 -18 -15
-14 -22 4 -4 10 -1 14 6 12 6 -2 14 -10 16 -16z m-508 -37 c0 -8 -4 -15 -10
-15 -5 0 -7 7 -4 15 4 8 8 15 10 15 2 0 4 -7 4 -15z m-23 -142 c-3 -3 -11 -2
-17 2 -9 6 -9 10 1 16 14 8 27 -7 16 -18z m43 -23 c0 -11 -2 -20 -4 -20 -2 0
-6 9 -9 20 -3 11 -1 20 4 20 5 0 9 -9 9 -20z m-34 -97 c-8 -8 -12 -3 -21 27
l-7 25 17 -23 c9 -13 14 -26 11 -29z m8 -68 c3 -8 1 -15 -3 -15 -5 0 -11 7
-15 15 -3 8 -1 15 3 15 5 0 11 -7 15 -15z m13 -81 c-9 -9 -28 6 -21 18 4 6 10
6 17 -1 6 -6 8 -13 4 -17z m473 -25 c0 -6 -4 -7 -10 -4 -5 3 -10 11 -10 16 0
6 5 7 10 4 6 -3 10 -11 10 -16z m-590 -19 c0 -5 -7 -10 -15 -10 -8 0 -15 5
-15 10 0 6 7 10 15 10 8 0 15 -4 15 -10z m20 -44 c0 -3 -4 -8 -10 -11 -5 -3
-10 -1 -10 4 0 6 5 11 10 11 6 0 10 -2 10 -4z m568 -34 c2 -7 -2 -10 -12 -6
-9 3 -16 11 -16 16 0 13 23 5 28 -10z m-568 -26 c0 -3 -4 -8 -10 -11 -5 -3
-10 -1 -10 4 0 6 5 11 10 11 6 0 10 -2 10 -4z m584 -31 c-4 -8 -10 -12 -15 -9
-11 6 -2 24 11 24 5 0 7 -7 4 -15z m-690 -78 c-3 -9 -10 -17 -15 -17 -14 0
-22 27 -15 47 6 15 8 15 22 2 8 -9 12 -23 8 -32z m3 -53 c-9 -9 -28 6 -21 18
4 6 10 6 17 -1 6 -6 8 -13 4 -17z m82 -52 c-17 -7 -39 7 -39 23 0 14 3 14 24
-2 13 -10 20 -20 15 -21z m61 -28 c0 -2 -7 -4 -15 -4 -8 0 -15 4 -15 10 0 5 7
7 15 4 8 -4 15 -8 15 -10z m-110 -58 c0 -6 -5 -5 -12 2 -8 8 -15 8 -24 1 -10
-8 -19 -6 -36 6 -22 16 -22 16 -2 11 13 -4 26 -1 34 9 11 14 14 13 26 -2 7
-10 14 -22 14 -27z m0 -86 c0 -5 -5 -10 -11 -10 -5 0 -7 5 -4 10 3 6 8 10 11
10 2 0 4 -4 4 -10z m40 -30 c0 -5 -4 -10 -10 -10 -5 0 -10 5 -10 10 0 6 5 10
10 10 6 0 10 -4 10 -10z m415 -100 c3 -5 1 -10 -4 -10 -6 0 -11 5 -11 10 0 6
2 10 4 10 3 0 8 -4 11 -10z m-85 -59 c0 -5 -7 -12 -16 -15 -14 -5 -15 -4 -4 9
14 17 20 19 20 6z"/>
<path d="M15442 7235 c0 -16 2 -22 5 -12 2 9 2 23 0 30 -3 6 -5 -1 -5 -18z"/>
<path d="M12850 7231 c0 -10 30 -24 37 -17 3 2 -5 9 -16 16 -12 6 -21 7 -21 1z"/>
<path d="M12896 7191 c-3 -5 0 -14 8 -20 10 -9 15 -8 19 3 9 22 -15 37 -27 17z"/>
<path d="M13290 7150 c0 -5 4 -10 9 -10 6 0 13 5 16 10 3 6 -1 10 -9 10 -9 0
-16 -4 -16 -10z"/>
<path d="M12760 7110 c0 -6 12 -15 26 -20 33 -13 34 -13 34 4 0 7 -10 16 -22
20 -32 8 -38 7 -38 -4z"/>
<path d="M10400 7097 c0 -7 -9 -19 -20 -27 -11 -8 -20 -20 -20 -26 0 -6 -7
-17 -15 -24 -25 -21 -17 -32 9 -13 20 15 37 41 64 96 2 4 -2 7 -7 7 -6 0 -11
-6 -11 -13z"/>
<path d="M12897 7084 c-5 -30 0 -54 14 -54 7 0 3 69 -5 77 -2 2 -6 -8 -9 -23z"/>
<path d="M12770 7065 c0 -8 7 -15 16 -15 14 0 14 3 4 15 -7 8 -14 15 -16 15
-2 0 -4 -7 -4 -15z"/>
<path d="M13330 7031 c0 -5 7 -11 15 -15 9 -3 15 0 15 9 0 8 -7 15 -15 15 -8
0 -15 -4 -15 -9z"/>
<path d="M12606 6989 c-19 -15 -24 -25 -17 -32 7 -7 15 -6 25 2 12 10 20 9 40
-6 14 -10 26 -21 26 -25 0 -5 5 -8 11 -8 6 0 9 7 5 15 -10 27 52 19 78 -10 23
-25 56 -34 56 -15 0 5 -11 17 -25 26 -14 9 -28 27 -31 40 -7 27 -24 33 -24 8
0 -12 -6 -15 -25 -10 -14 4 -25 2 -25 -4 0 -5 -11 -10 -25 -10 -20 0 -25 5
-25 25 0 31 -9 31 -44 4z"/>
<path d="M12800 6985 c0 -8 5 -15 10 -15 6 0 10 7 10 15 0 8 -4 15 -10 15 -5
0 -10 -7 -10 -15z"/>
<path d="M12870 6991 c0 -5 5 -13 10 -16 6 -3 10 -2 10 4 0 5 -4 13 -10 16 -5
3 -10 2 -10 -4z"/>
<path d="M12880 6940 c0 -5 4 -10 9 -10 6 0 13 5 16 10 3 6 -1 10 -9 10 -9 0
-16 -4 -16 -10z"/>
<path d="M13266 6936 c21 -15 30 -14 19 3 -3 6 -14 11 -23 11 -13 0 -13 -2 4
-14z"/>
<path d="M12593 6915 c-13 -28 -7 -31 21 -10 10 7 15 18 11 24 -10 17 -19 13
-32 -14z"/>
<path d="M12610 6870 c0 -5 5 -10 11 -10 5 0 7 5 4 10 -3 6 -8 10 -11 10 -2 0
-4 -4 -4 -10z"/>
<path d="M10513 6818 c-52 -99 -74 -149 -92 -213 -20 -67 -21 -103 -2 -53 5
13 23 55 41 93 43 94 81 197 76 203 -3 2 -13 -11 -23 -30z"/>
<path d="M12557 6658 c-6 -18 4 -48 15 -48 6 0 8 7 5 15 -4 8 -2 17 3 20 6 4
10 10 10 16 0 14 -28 11 -33 -3z"/>
<path d="M13325 6650 c-3 -5 -1 -10 4 -10 6 0 11 5 11 10 0 6 -2 10 -4 10 -3
0 -8 -4 -11 -10z"/>
<path d="M13320 6551 c0 -6 5 -13 10 -16 6 -3 10 1 10 9 0 9 -4 16 -10 16 -5
0 -10 -4 -10 -9z"/>
<path d="M12542 6464 c-7 -8 -10 -19 -6 -26 5 -7 10 -3 16 12 10 28 7 33 -10
14z"/>
<path d="M13280 6422 c0 -13 23 -32 39 -32 11 0 9 5 -7 20 -23 21 -32 25 -32
12z"/>
<path d="M12475 6184 c8 -9 22 -13 31 -10 22 8 7 26 -22 26 -23 0 -24 -1 -9
-16z"/>
<path d="M10254 6151 c3 -18 6 -40 6 -47 0 -8 5 -14 11 -14 15 0 5 69 -12 84
-9 8 -10 3 -5 -23z"/>
<path d="M14065 6132 c-16 -8 -46 -27 -65 -42 -19 -15 -47 -30 -62 -34 -16 -3
-28 -11 -28 -16 0 -5 -7 -7 -15 -4 -8 4 -12 10 -9 15 10 17 -14 9 -37 -12 -13
-11 -19 -18 -12 -15 6 4 14 2 17 -2 3 -5 -13 -16 -35 -25 -23 -9 -38 -21 -34
-27 3 -5 0 -10 -7 -11 -7 0 -35 -27 -61 -60 -27 -33 -59 -64 -72 -69 -13 -5
-42 -27 -65 -50 -22 -22 -49 -40 -60 -40 -14 0 -20 -7 -20 -22 0 -19 -2 -20
-10 -8 -8 13 -10 13 -10 -2 0 -9 -3 -18 -7 -20 -9 -4 -66 -68 -137 -153 -59
-71 -156 -165 -170 -165 -5 0 0 10 11 23 11 12 25 29 31 37 7 8 26 31 43 50
17 19 42 60 56 90 15 30 31 59 37 63 7 6 6 7 -4 5 -8 -3 -28 -26 -45 -52 -16
-25 -71 -97 -120 -159 -50 -62 -103 -133 -118 -158 -26 -46 -85 -105 -94 -95
-3 3 6 19 20 35 55 66 79 135 81 239 1 31 6 52 12 52 6 0 9 10 7 24 -7 36 -43
31 -43 -6 0 -21 -7 -31 -25 -38 -29 -11 -32 -32 -9 -51 18 -14 14 -53 -10
-104 -8 -16 -29 -59 -45 -95 -57 -119 -81 -158 -129 -207 -53 -53 -162 -186
-162 -198 0 -10 -40 -65 -48 -65 -4 0 -12 21 -19 48 -11 46 -56 130 -111 203
-63 86 -189 237 -233 280 -53 52 -183 141 -278 188 -117 59 -497 183 -604 197
-23 3 -51 7 -62 9 -11 1 -31 7 -45 12 -20 8 -96 25 -204 46 -4 1 -10 -3 -13
-10 -3 -7 10 -15 31 -19 25 -4 36 -12 36 -24 0 -10 7 -23 16 -31 8 -7 22 -26
30 -42 15 -28 15 -29 -5 -22 -13 4 -21 2 -21 -5 0 -6 -4 -9 -8 -6 -4 2 -7 -11
-7 -30 1 -19 -4 -39 -11 -45 -8 -7 -11 -27 -7 -64 5 -52 5 -53 -19 -52 -18 2
-24 7 -20 20 3 12 -2 17 -16 17 -11 0 -20 -6 -19 -12 1 -39 -5 -56 -22 -61
-13 -3 -22 -17 -26 -41 -7 -36 -18 -45 -30 -26 -4 6 -11 8 -16 4 -7 -4 -6 -10
0 -18 7 -9 2 -22 -17 -47 -27 -35 -52 -74 -52 -84 0 -3 7 -5 16 -5 10 0 14 -7
12 -22 -2 -15 -9 -22 -20 -20 -10 1 -21 -9 -30 -28 -7 -16 -16 -30 -20 -30 -5
0 -8 -7 -8 -16 0 -10 -6 -14 -15 -11 -19 8 -30 -10 -15 -27 6 -8 8 -26 4 -40
-6 -27 -20 -34 -26 -14 -8 22 -28 -3 -22 -27 4 -14 0 -33 -10 -47 -15 -22 -16
-21 -12 20 2 23 -1 42 -6 42 -16 0 -40 -29 -33 -40 4 -6 -1 -27 -10 -46 -18
-37 -30 -46 -22 -14 3 11 1 20 -4 20 -10 0 -11 -7 -14 -55 0 -17 -4 -36 -8
-42 -4 -6 -4 -18 -1 -27 3 -9 1 -16 -5 -16 -6 0 -11 9 -11 20 0 11 -5 20 -11
20 -6 0 -9 -10 -8 -22 5 -33 -9 -52 -27 -37 -11 9 -16 6 -24 -16 -5 -14 -10
-31 -10 -36 0 -5 -7 -9 -15 -9 -15 0 -19 15 -15 58 1 12 -3 22 -8 22 -12 0
-21 -46 -11 -57 14 -15 21 -80 9 -88 -8 -5 -11 -1 -8 11 3 18 -2 24 -20 24 -4
0 -7 -22 -6 -49 1 -35 -3 -52 -13 -55 -8 -3 -11 -2 -8 3 3 5 1 12 -5 16 -5 3
-10 1 -10 -4 0 -6 -7 -11 -15 -11 -8 0 -15 -5 -15 -10 0 -6 -8 -14 -17 -17
-27 -10 -77 -63 -60 -63 8 0 20 7 27 15 7 8 16 15 21 15 5 0 9 -7 9 -15 0 -8
7 -15 15 -15 9 0 15 -9 15 -21 0 -17 -3 -19 -13 -10 -17 13 -27 5 -27 -22 0
-12 -5 -17 -13 -14 -8 3 -20 1 -28 -4 -10 -6 -21 0 -36 19 -21 26 -22 26 -23
5 0 -12 4 -33 9 -46 6 -14 7 -28 3 -32 -4 -3 -7 -14 -7 -22 0 -9 -6 -18 -12
-20 -8 -3 -13 4 -13 16 0 12 -4 21 -10 21 -5 0 -10 -7 -10 -15 0 -18 -27 -20
-32 -3 -3 9 -9 8 -21 -4 -12 -12 -14 -18 -4 -21 9 -4 8 -8 -3 -16 -11 -8 478
-11 1678 -11 1059 0 1692 4 1692 10 0 9 122 70 140 70 5 0 17 11 26 25 9 14
24 25 34 25 10 0 20 7 24 15 4 10 -1 15 -16 15 -17 0 -18 3 -8 15 15 19 3 38
-21 32 -14 -4 -19 0 -19 14 0 27 50 26 57 -1 8 -29 17 -25 32 16 10 29 11 38
1 44 -9 6 -9 9 1 13 12 5 11 8 -1 19 -8 7 -22 22 -30 32 -14 18 -13 19 13 14
31 -6 36 8 10 28 -17 11 -16 13 9 23 l28 10 -19 33 c-10 18 -25 31 -32 29 -8
-2 -25 -5 -39 -6 -14 -1 -27 -4 -30 -5 -3 -1 -12 -2 -21 -1 -9 1 -19 -5 -22
-14 -4 -8 -17 -15 -30 -15 -14 0 -30 -6 -36 -14 -7 -8 -21 -12 -31 -9 -28 8
-25 23 5 23 32 0 33 16 1 22 -29 6 -39 -11 -30 -48 5 -20 2 -24 -15 -24 -12 0
-21 6 -21 15 0 8 -4 15 -10 15 -5 0 -7 -7 -4 -15 5 -12 -7 -21 -18 -13 -2 1
-13 -4 -25 -10 -14 -8 -24 -9 -28 -2 -3 6 4 14 17 19 18 8 19 10 5 10 -11 1
-17 7 -14 14 2 6 12 11 21 11 9 -1 16 3 16 8 0 6 9 8 20 5 12 -3 20 0 20 8 0
14 31 25 73 25 16 0 26 4 22 10 -3 6 3 10 14 10 24 0 27 -10 9 -30 -11 -12
-10 -12 4 -1 9 7 22 10 28 6 5 -3 10 -1 10 4 0 6 6 10 13 8 7 -1 12 8 12 23 0
17 6 26 20 28 11 2 27 10 36 18 9 8 19 11 23 7 4 -4 12 0 17 10 6 9 21 17 34
17 15 0 25 6 25 14 0 7 14 16 31 20 17 3 28 10 24 16 -3 5 1 10 9 10 9 0 16 6
16 14 0 8 9 17 19 21 10 3 21 13 24 23 3 9 8 25 12 35 7 16 3 18 -30 15 -26
-2 -39 2 -43 11 -3 10 1 12 17 8 28 -7 27 9 -2 36 -13 12 -26 29 -29 37 -3 10
-16 14 -41 12 -29 -3 -36 0 -31 11 3 9 -3 16 -15 20 -11 3 -21 1 -23 -5 -4
-11 -83 -31 -117 -29 -13 0 -32 -6 -42 -15 -9 -8 -26 -15 -36 -14 -10 1 -20 1
-23 0 -13 -5 -72 -9 -145 -10 -56 -1 -73 -4 -55 -10 22 -7 22 -8 4 -9 -11 -1
-29 5 -39 13 -18 13 -18 14 1 19 10 3 39 8 65 11 25 3 112 17 195 32 82 15
156 27 164 28 17 2 79 29 125 53 17 9 40 21 52 27 13 6 23 14 23 19 0 4 6 7
13 7 6 0 30 16 52 34 32 28 37 36 24 41 -9 3 -40 -5 -70 -19 -29 -14 -63 -26
-75 -26 -13 0 -26 -4 -29 -10 -7 -12 -25 -13 -25 -2 0 4 24 21 54 37 36 19 51
32 43 37 -14 10 30 48 47 42 6 -2 17 5 24 16 10 17 10 20 -3 20 -9 0 -12 6 -8
16 4 10 14 14 29 11 21 -4 34 9 34 34 0 13 -37 11 -45 -2 -4 -6 -14 -8 -22 -4
-9 3 -24 -2 -34 -11 -18 -16 -39 -12 -39 8 0 6 11 21 25 34 14 13 22 29 19 37
-3 8 -1 18 5 22 21 12 11 24 -16 19 -78 -13 -93 -17 -104 -30 -6 -8 -26 -14
-43 -14 l-31 0 25 20 c14 11 31 20 38 20 6 0 12 8 12 18 0 14 2 15 10 2 5 -8
10 -10 10 -4 0 6 12 17 28 24 42 21 61 41 56 55 -3 7 4 16 15 20 12 3 21 11
21 16 0 5 11 9 25 9 14 0 25 5 25 10 0 15 38 50 54 50 16 0 28 37 15 46 -6 3
-21 -2 -35 -11 -13 -9 -29 -13 -34 -10 -6 3 -10 1 -10 -4 0 -6 -20 -11 -45
-11 -25 0 -45 -4 -45 -10 0 -5 -21 -19 -47 -31 -27 -12 -56 -26 -65 -31 -12
-5 -18 -5 -18 2 0 5 6 10 13 10 17 1 50 48 42 60 -4 7 2 9 17 5 18 -5 24 -2
24 12 0 10 4 28 8 41 10 29 -5 28 -38 -3 -15 -14 -29 -25 -32 -25 -3 0 -32
-18 -66 -41 -33 -23 -66 -42 -74 -43 -7 -1 -25 -13 -39 -26 -14 -13 -28 -20
-32 -17 -8 8 36 57 51 57 15 1 66 47 66 60 0 5 3 9 8 8 15 -3 42 15 42 28 0 8
7 14 15 14 9 0 12 6 9 15 -4 8 -1 15 5 15 6 0 11 -4 11 -10 0 -5 7 -7 15 -4
10 4 13 13 10 25 -4 13 -1 19 9 19 8 0 20 9 26 21 7 12 18 18 26 15 8 -3 14 1
14 10 0 9 5 12 12 8 8 -5 9 -2 5 10 -5 14 -3 17 8 12 15 -5 39 26 28 38 -3 3
1 6 10 6 10 0 17 4 17 10 0 5 10 20 23 33 12 14 30 37 40 51 11 15 28 31 40
35 15 6 16 9 6 13 -8 2 -27 -2 -44 -10z m-445 -342 c0 -5 -5 -10 -11 -10 -5 0
-7 5 -4 10 3 6 8 10 11 10 2 0 4 -4 4 -10z m270 -500 c0 -5 -4 -10 -10 -10 -5
0 -10 5 -10 10 0 6 5 10 10 10 6 0 10 -4 10 -10z m-22 -291 l-3 -24 -13 23
c-7 12 -10 27 -6 33 10 17 26 -6 22 -32z m-483 -400 c-37 -14 -47 -11 -33 10
10 16 16 18 32 9 20 -11 20 -11 1 -19z m-35 -32 c8 -3 -2 -6 -22 -6 -39 -1
-46 7 -26 27 9 9 14 8 22 -2 6 -8 18 -16 26 -19z m315 -186 c-6 -4 -22 -11
-37 -15 -22 -5 -28 -3 -28 10 0 10 6 14 14 11 8 -3 20 1 27 9 8 10 15 12 23 4
6 -6 6 -13 1 -19z m-3370 -91 c3 -5 1 -10 -4 -10 -6 0 -11 5 -11 10 0 6 2 10
4 10 3 0 8 -4 11 -10z"/>
<path d="M12420 6125 c6 -8 9 -18 6 -23 -3 -6 1 -15 10 -22 8 -7 13 -19 10
-26 -3 -7 2 -18 10 -24 12 -11 14 -7 14 23 0 19 3 42 6 51 4 11 0 16 -14 16
-12 0 -24 5 -27 10 -3 6 -11 10 -17 10 -7 0 -6 -5 2 -15z"/>
<path d="M13742 6117 c-17 -20 -12 -40 6 -28 8 5 12 16 10 26 -3 17 -4 17 -16
2z"/>
<path d="M12385 6077 c-4 -10 -5 -21 -1 -24 10 -10 18 4 13 24 -4 17 -4 17
-12 0z"/>
<path d="M13705 6040 c3 -6 1 -10 -4 -10 -6 0 -11 -7 -11 -15 0 -19 7 -19 26
-1 18 18 18 22 -2 30 -8 3 -12 2 -9 -4z"/>
<path d="M12353 6021 c-14 -22 -8 -31 20 -31 12 0 17 5 14 14 -3 7 0 19 6 25
8 8 6 11 -9 11 -10 0 -25 -9 -31 -19z"/>
<path d="M13643 5955 c-18 -24 -35 -56 -38 -71 -6 -26 -5 -27 6 -9 7 11 20 25
29 32 19 13 44 67 39 81 -2 5 -18 -10 -36 -33z"/>
<path d="M13251 5944 c0 -11 3 -14 6 -6 3 7 2 16 -1 19 -3 4 -6 -2 -5 -13z"/>
<path d="M13187 5927 c-5 -13 30 -43 40 -34 7 7 -16 47 -26 47 -5 0 -11 -6
-14 -13z"/>
<path d="M10133 5820 c-72 -77 -197 -235 -346 -436 -632 -854 -857 -1163 -857
-1178 0 -3 20 -6 44 -6 44 0 45 1 90 70 25 38 46 71 46 74 0 3 20 33 45 68 25
35 52 78 60 96 9 18 22 35 30 39 8 3 15 13 15 23 0 9 10 28 21 41 12 13 42 56
66 94 25 39 54 80 66 92 11 12 25 31 31 42 21 37 189 296 196 301 4 3 22 29
42 57 19 29 38 51 41 48 4 -3 5 -2 2 1 -4 7 19 40 90 130 22 28 51 65 65 84
14 18 33 42 42 53 10 10 20 28 23 38 4 11 11 19 16 19 5 0 9 6 9 14 0 8 7 16
15 20 8 3 15 12 15 20 0 8 4 16 8 18 13 5 192 218 192 228 0 18 -10 11 -67
-50z"/>
<path d="M12311 5864 c-1 -12 8 -31 19 -44 l20 -23 0 36 c0 36 -19 54 -21 20
-1 -12 -4 -10 -9 7 -7 22 -8 23 -9 4z"/>
<path d="M12450 5870 c0 -5 5 -10 10 -10 6 0 10 5 10 10 0 6 -4 10 -10 10 -5
0 -10 -4 -10 -10z"/>
<path d="M13166 5851 c-8 -13 3 -38 19 -45 11 -4 12 1 3 25 -11 31 -14 34 -22
20z"/>
<path d="M13571 5846 c-8 -9 -11 -19 -7 -23 9 -9 29 13 24 27 -2 8 -8 7 -17
-4z"/>
<path d="M13922 5839 c-16 -24 -15 -34 1 -21 6 6 16 10 22 10 15 1 17 19 2 25
-7 3 -19 -3 -25 -14z"/>
<path d="M12363 5810 c1 -19 17 -27 30 -14 9 10 -4 34 -18 34 -8 0 -13 -9 -12
-20z"/>
<path d="M13540 5798 c0 -6 -8 -21 -17 -32 -13 -15 -10 -14 10 3 28 25 35 41
17 41 -5 0 -10 -5 -10 -12z"/>
<path d="M10980 5750 c20 -13 33 -13 25 0 -3 6 -14 10 -23 10 -15 0 -15 -2 -2
-10z"/>
<path d="M12753 5267 c4 -10 7 -23 7 -28 0 -5 5 -9 10 -9 16 0 12 26 -7 41
-15 12 -16 12 -10 -4z"/>
<path d="M10854 5199 c-3 -6 -1 -16 5 -22 8 -8 11 -5 11 11 0 24 -5 28 -16 11z"/>
<path d="M10800 5080 c0 -5 5 -10 11 -10 5 0 7 5 4 10 -3 6 -8 10 -11 10 -2 0
-4 -4 -4 -10z"/>
<path d="M13897 5059 c7 -7 15 -10 18 -7 3 3 -2 9 -12 12 -14 6 -15 5 -6 -5z"/>
<path d="M13980 4965 c-10 -12 -10 -15 4 -15 9 0 16 7 16 15 0 8 -2 15 -4 15
-2 0 -9 -7 -16 -15z"/>
<path d="M13780 4760 c0 -5 5 -10 11 -10 5 0 7 5 4 10 -3 6 -8 10 -11 10 -2 0
-4 -4 -4 -10z"/>
<path d="M13813 4716 c-35 -11 -43 -30 -17 -40 10 -4 26 3 41 18 28 29 20 36
-24 22z"/>
<path d="M10156 4353 c9 -38 11 -39 16 -3 3 21 0 30 -9 30 -10 0 -11 -8 -7
-27z"/>
<path d="M10275 4370 c-3 -5 -1 -10 4 -10 6 0 11 5 11 10 0 6 -2 10 -4 10 -3
0 -8 -4 -11 -10z"/>
<path d="M10200 4315 c7 -8 17 -12 22 -9 6 4 5 10 -3 15 -22 14 -33 10 -19 -6z"/>
<path d="M10135 4290 c-3 -5 -1 -10 4 -10 6 0 11 5 11 10 0 6 -2 10 -4 10 -3
0 -8 -4 -11 -10z"/>
<path d="M10105 4219 c-11 -17 1 -21 15 -4 8 9 8 15 2 15 -6 0 -14 -5 -17 -11z"/>
</g>
</svg>
