<?xml version="1.0" standalone="no"?>
<!DOCTYPE svg PUBLIC "-//W3C//DTD SVG 20010904//EN"
 "http://www.w3.org/TR/2001/REC-SVG-20010904/DTD/svg10.dtd">
<svg version="1.0" xmlns="http://www.w3.org/2000/svg"
 width="440.000000pt" height="440.000000pt" viewBox="0 0 440.000000 440.000000"
 preserveAspectRatio="xMidYMid meet">
<metadata>
Created by potrace 1.14, written by Peter Selinger 2001-2017
</metadata>
<g transform="translate(0.000000,440.000000) scale(0.100000,-0.100000)"
fill="#000000" stroke="none">
<path d="M2479 3148 c-3 -7 -4 -301 -4 -653 l1 -640 172 -3 172 -2 0 295 0
296 31 -5 c40 -6 56 -21 64 -58 4 -17 7 -142 8 -279 l0 -249 160 2 160 3 -1
233 c-1 128 -4 252 -7 275 -10 65 -48 115 -111 144 -30 13 -54 25 -54 27 0 1
12 3 27 4 14 1 45 13 68 27 36 20 45 33 58 77 19 63 17 283 -3 338 -20 55 -71
117 -115 139 -63 31 -123 37 -381 40 -193 2 -242 0 -245 -11z m421 -233 c18
-19 27 -110 18 -189 -7 -64 -19 -78 -70 -82 l-28 -2 0 150 0 151 32 -7 c18 -4
39 -13 48 -21z"/>
<path d="M3367 2513 c0 -356 2 -651 2 -656 1 -11 564 -6 628 5 38 7 63 19 93
46 57 52 76 125 75 292 -2 225 -32 294 -147 339 -29 11 -46 20 -37 20 8 1 38
12 66 26 67 34 86 72 89 181 7 194 -40 304 -151 354 -65 30 -88 33 -360 37
l-260 5 2 -649z m431 403 c14 -14 17 -37 17 -131 0 -72 -4 -118 -11 -125 -7
-7 -30 -13 -53 -16 l-41 -4 0 150 0 151 36 -4 c19 -2 43 -11 52 -21z m-22
-485 c35 -2 44 -40 41 -186 -2 -151 -7 -163 -70 -171 l-37 -4 0 185 0 185 23
-4 c12 -3 31 -5 43 -5z"/>
<path d="M775 3142 c-1 -2 -14 -5 -29 -7 -62 -11 -72 -14 -98 -24 -16 -6 -28
-8 -28 -6 0 3 -11 -2 -25 -11 -14 -9 -25 -13 -25 -9 0 3 -7 -1 -16 -9 -8 -9
-20 -14 -25 -11 -5 4 -9 1 -9 -5 0 -6 -4 -9 -9 -6 -5 3 -12 -1 -15 -10 -4 -9
-9 -14 -12 -11 -6 5 -13 0 -72 -55 -16 -15 -32 -24 -36 -21 -3 4 -6 0 -6 -9 0
-8 -12 -26 -27 -41 -36 -33 -47 -48 -56 -69 -3 -10 -11 -18 -17 -18 -6 0 -8
-4 -5 -10 3 -5 1 -10 -5 -10 -6 0 -8 -4 -5 -10 3 -5 1 -10 -6 -10 -7 0 -9 -3
-6 -6 4 -4 0 -19 -7 -33 -15 -27 -28 -59 -31 -76 -1 -5 -3 -12 -4 -15 -4 -8
-11 -41 -17 -80 -8 -45 -12 -662 -4 -675 3 -5 6 -21 7 -35 2 -35 8 -60 27
-105 9 -21 14 -40 11 -43 -3 -3 1 -12 9 -21 8 -9 16 -23 18 -31 2 -8 10 -21
18 -28 13 -12 13 -13 0 -7 -10 4 -9 2 3 -8 9 -8 17 -17 17 -20 0 -8 25 -39 58
-73 12 -13 22 -28 22 -34 0 -6 4 -8 10 -5 5 3 10 -1 10 -10 0 -9 5 -13 10 -10
6 3 10 3 10 -2 0 -4 17 -19 38 -33 20 -14 43 -32 50 -40 12 -13 13 -13 6 0 -7
13 -6 13 12 0 10 -8 22 -19 25 -23 3 -5 9 -8 13 -8 3 1 22 -6 42 -14 20 -8 42
-15 50 -15 7 0 16 -5 19 -10 4 -6 11 -8 16 -5 5 4 14 3 20 -1 23 -14 96 -16
444 -16 301 0 422 3 433 12 1 2 10 3 20 5 9 1 26 5 37 9 11 4 34 13 50 19 17
7 33 11 38 9 4 -1 7 3 7 10 0 6 3 9 6 5 4 -3 13 1 21 9 8 8 18 12 23 9 4 -3
11 2 14 11 4 9 9 14 12 11 5 -5 14 2 73 56 13 12 20 16 16 8 -5 -9 -4 -12 3
-7 7 4 12 13 12 20 0 7 18 29 40 49 23 20 41 40 40 44 0 4 5 15 12 23 7 8 22
34 33 57 11 24 23 43 27 43 4 0 5 7 2 15 -4 8 -1 15 7 15 7 0 10 3 6 6 -3 3 1
25 10 47 8 23 17 60 19 82 8 71 8 658 0 705 -5 25 -9 53 -9 63 -1 9 -5 17 -9
17 -4 0 -7 3 -6 8 3 13 -15 66 -29 88 -7 11 -10 24 -6 27 3 4 0 7 -7 7 -7 0
-11 3 -7 6 3 3 -3 15 -13 27 -11 11 -17 23 -15 27 3 5 -2 10 -10 14 -8 3 -15
10 -15 16 0 6 -11 21 -25 34 -13 13 -22 26 -19 29 3 3 -4 8 -15 12 -12 3 -19
11 -16 16 4 5 -1 9 -9 9 -8 0 -23 11 -34 25 -11 13 -22 22 -25 18 -4 -3 -9 2
-13 11 -3 9 -10 13 -15 10 -5 -3 -12 2 -15 10 -3 9 -10 14 -14 11 -5 -3 -16 2
-24 11 -9 8 -16 12 -16 8 0 -3 -6 -2 -12 4 -21 16 -112 46 -183 58 -31 6 -764
11 -770 6z m458 -516 c-4 -5 1 -7 10 -3 10 3 17 3 17 -1 0 -4 9 -8 20 -9 22
-2 43 -21 48 -41 1 -8 -2 -11 -8 -7 -7 4 -9 -3 -6 -19 3 -18 1 -24 -6 -20 -7
5 -9 1 -5 -9 3 -9 2 -19 -4 -22 -5 -4 -7 -11 -4 -16 4 -5 2 -9 -4 -9 -5 0 -8
-9 -6 -20 2 -11 -1 -20 -7 -20 -6 0 -8 -3 -5 -7 4 -3 1 -13 -6 -21 -10 -13 -9
-14 3 -7 10 6 9 1 -3 -13 -13 -14 -17 -28 -12 -43 5 -16 4 -19 -6 -14 -9 6
-11 3 -6 -8 3 -10 2 -17 -4 -17 -6 0 -8 -4 -4 -9 3 -5 1 -13 -5 -16 -6 -4 -8
-15 -5 -26 4 -11 2 -19 -5 -19 -7 0 -10 -6 -7 -14 3 -7 0 -19 -6 -26 -9 -10
-9 -11 3 -5 12 7 12 5 -1 -11 -9 -10 -15 -27 -14 -36 2 -10 0 -18 -4 -18 -4 0
-8 -8 -9 -17 -2 -25 -10 -68 -12 -68 -3 0 -12 -39 -13 -57 -1 -10 -5 -18 -9
-18 -4 0 -5 -7 -2 -15 4 -8 1 -15 -6 -15 -8 0 -10 -9 -6 -26 4 -16 3 -23 -3
-20 -5 4 -12 2 -15 -3 -6 -10 -56 9 -56 21 0 4 -9 5 -19 3 -11 -2 -25 3 -31
11 -7 7 -16 11 -21 8 -11 -6 0 25 15 45 9 12 8 13 -4 6 -12 -7 -12 -5 1 11 9
10 15 28 13 38 -1 10 4 29 12 41 8 12 11 25 7 28 -3 4 -1 7 5 7 6 0 9 9 7 20
-2 11 1 20 6 20 6 0 7 5 4 10 -3 6 -3 16 2 23 4 6 9 21 10 31 2 11 9 26 16 35
10 12 9 13 -3 6 -10 -6 -10 -2 3 12 10 11 15 27 11 37 -4 9 -1 16 6 16 8 0 10
9 6 26 -5 19 -4 24 5 18 9 -5 10 -2 6 9 -3 10 -2 17 3 17 5 0 7 12 4 26 -3 18
-1 23 7 18 9 -5 10 -1 7 14 -4 13 -1 22 5 22 6 0 7 3 4 7 -4 3 -1 13 6 21 10
13 9 14 -3 7 -13 -7 -13 -6 -2 7 7 9 12 20 10 24 -1 5 4 20 11 33 11 19 11 22
-1 15 -10 -6 -11 -5 -1 8 7 8 10 18 6 21 -3 4 -1 7 5 7 7 0 11 3 11 8 -3 15 2
18 25 18 14 0 22 -4 19 -10z m-378 -157 c-4 -5 -1 -9 4 -9 6 0 11 -7 11 -15 0
-8 5 -15 11 -15 5 0 8 -4 4 -9 -3 -5 -1 -12 5 -16 6 -4 8 -11 5 -16 -4 -5 -1
-9 5 -9 6 0 9 -12 7 -27 -2 -16 -9 -28 -16 -28 -7 0 -19 -9 -27 -19 -8 -11
-14 -16 -14 -12 0 5 -8 0 -17 -11 -10 -10 -14 -12 -8 -3 5 8 -2 5 -15 -6 -14
-12 -31 -19 -39 -16 -9 3 -11 0 -6 -8 6 -10 4 -12 -8 -7 -11 4 -15 0 -14 -12
0 -11 6 -17 13 -14 6 2 14 -3 18 -12 3 -9 10 -14 15 -11 5 4 16 0 24 -8 8 -8
17 -12 21 -9 3 4 6 -2 6 -12 0 -10 3 -16 6 -12 4 3 14 -2 23 -11 10 -11 12
-12 6 -2 -9 13 -8 13 8 1 9 -7 16 -21 15 -30 -2 -9 2 -15 9 -14 7 2 10 -4 7
-12 -4 -8 -11 -15 -16 -15 -6 0 -8 -7 -4 -15 3 -8 1 -15 -5 -15 -6 0 -8 -4 -5
-9 3 -5 -1 -12 -10 -15 -9 -4 -14 -13 -10 -22 4 -9 2 -13 -5 -8 -7 4 -9 0 -5
-14 5 -16 3 -20 -11 -18 -10 2 -18 9 -18 17 0 8 -8 13 -20 11 -11 -2 -17 -1
-13 4 8 8 -32 41 -44 36 -5 -1 -8 5 -8 13 0 9 -6 12 -17 8 -11 -4 -14 -3 -9 5
4 7 1 12 -9 12 -8 0 -18 7 -21 15 -4 8 -12 15 -20 15 -8 0 -14 5 -14 11 0 5
-4 7 -10 4 -5 -3 -10 -1 -10 5 0 6 -4 9 -9 5 -5 -3 -12 -1 -16 4 -3 5 -14 8
-25 6 -13 -3 -18 0 -14 7 5 7 2 9 -7 6 -12 -5 -15 9 -14 82 0 80 2 88 24 105
15 12 21 13 16 4 -8 -12 -6 -12 8 0 9 7 17 10 17 5 0 -4 7 1 16 12 8 10 13 12
9 4 -4 -8 3 -4 15 10 12 14 19 19 15 12 -5 -10 1 -9 24 2 17 9 31 19 31 22 0
3 -5 2 -12 -2 -7 -4 -8 -3 -4 4 4 7 14 12 22 12 8 0 14 5 14 12 0 6 3 9 6 5 4
-3 14 2 23 11 9 10 12 11 6 3 -5 -9 8 -1 29 16 36 29 65 36 51 12z m662 -14
c-1 -5 6 -9 15 -7 9 1 20 -3 24 -9 5 -8 3 -9 -6 -4 -9 5 -11 4 -6 -3 4 -7 16
-12 27 -12 11 0 18 -4 15 -9 -5 -7 17 -19 46 -25 3 0 10 -5 15 -10 5 -5 3 -6
-4 -2 -7 4 -13 5 -13 2 0 -3 10 -10 21 -17 17 -9 20 -8 14 3 -5 7 4 2 20 -12
16 -14 25 -18 21 -10 -5 9 -2 8 7 -2 8 -10 17 -15 21 -11 3 4 13 -2 22 -13 8
-10 12 -13 8 -5 -4 8 -3 12 3 8 8 -5 11 -62 3 -62 -1 0 -3 -15 -5 -33 -2 -18
0 -30 4 -28 9 6 7 -46 -2 -61 -4 -7 -17 -10 -29 -8 -12 3 -27 -3 -35 -13 -9
-11 -12 -11 -7 -2 4 8 -5 4 -21 -10 -16 -14 -25 -19 -20 -11 5 9 -2 7 -17 -5
-14 -10 -24 -22 -21 -26 2 -4 -2 -5 -10 -2 -8 3 -20 -3 -28 -13 -13 -17 -13
-17 6 -3 19 14 19 14 6 -2 -7 -10 -17 -16 -21 -13 -4 3 -20 -8 -36 -23 -15
-15 -24 -21 -19 -13 5 10 4 12 -3 7 -7 -4 -12 -14 -12 -22 0 -8 -4 -13 -9 -10
-5 4 -12 0 -14 -6 -3 -8 -6 -6 -6 5 -1 11 -5 15 -13 11 -8 -5 -9 -2 -5 9 4 10
1 17 -5 17 -6 0 -9 3 -5 6 3 4 -1 13 -9 21 -8 8 -12 19 -9 24 4 5 2 9 -3 9 -5
0 -12 11 -14 25 -4 16 -1 25 7 25 7 0 24 13 38 29 14 17 28 27 31 24 3 -4 6 1
6 10 0 11 5 14 17 10 9 -4 14 -2 10 3 -3 6 3 16 15 23 14 9 18 9 13 1 -6 -9
-2 -9 13 -1 23 12 20 36 -4 45 -8 3 -13 2 -10 -3 4 -5 -5 -4 -18 2 -13 7 -22
15 -19 19 2 5 -10 11 -27 14 -17 4 -33 11 -37 17 -4 6 -1 7 8 3 8 -4 -2 7 -21
25 -21 20 -29 34 -22 37 7 2 10 8 6 13 -3 5 0 9 6 9 6 0 8 5 5 10 -3 6 -2 10
4 10 6 0 15 10 22 21 9 17 8 20 -2 14 -13 -9 -4 10 15 31 12 12 55 -5 53 -21z"/>
<path d="M3004 1659 c-41 -12 -81 -52 -86 -89 -2 -16 2 -45 10 -65 20 -49 69
-71 153 -70 l61 0 2 48 c1 27 -2 54 -6 60 -4 7 -28 12 -53 12 -36 1 -45 -3
-45 -17 0 -11 -5 -15 -15 -12 -21 8 -19 44 3 45 9 1 30 1 46 0 29 -1 66 29 66
56 0 25 -87 45 -136 32z"/>
<path d="M2502 1548 l3 -112 55 0 c94 1 126 11 149 48 26 41 29 73 12 113 -18
44 -64 63 -150 63 l-72 0 3 -112z m126 0 c-2 -13 -7 -23 -13 -23 -5 0 -11 10
-13 23 -2 15 2 22 13 22 11 0 15 -7 13 -22z"/>
<path d="M2772 1548 l3 -112 47 -1 c26 0 49 4 51 10 1 5 2 55 2 110 l-1 100
-52 3 -53 3 3 -113z"/>
<path d="M3190 1550 c0 -66 4 -110 10 -111 6 -1 27 -2 48 -2 l37 -1 3 112 3
112 -51 0 -50 0 0 -110z"/>
<path d="M3322 1610 c1 -45 4 -50 25 -50 21 0 23 -5 24 -50 1 -27 2 -55 3 -62
1 -10 61 -15 96 -9 3 1 5 28 4 61 -1 58 0 60 25 60 25 0 26 3 26 50 l0 50
-102 0 -102 0 1 -50z"/>
<path d="M3581 1638 c-5 -13 -22 -62 -39 -110 -27 -77 -28 -88 -14 -89 78 -5
82 -4 88 13 8 25 84 26 90 0 4 -13 15 -17 52 -16 26 1 47 5 46 10 -1 16 -15
69 -23 84 -4 8 -16 41 -26 73 l-19 57 -73 0 c-67 0 -74 -2 -82 -22z m91 -83
c4 -19 1 -25 -13 -25 -16 0 -17 3 -7 25 6 14 12 25 13 25 2 0 5 -11 7 -25z"/>
<path d="M3838 1554 c-2 -63 1 -109 7 -113 6 -4 48 -6 94 -6 84 1 84 1 87 28
3 28 0 29 -63 30 -22 0 -23 3 -23 83 l0 84 -49 0 -50 0 -3 -106z"/>
<path d="M2474 1363 c10 -11 1556 -11 1562 -1 3 4 -349 8 -782 8 -433 0 -784
-3 -780 -7z"/>
</g>
</svg>
